<svg width="91" height="86" viewBox="0 0 91 86" fill="none" xmlns="http://www.w3.org/2000/svg">
<g filter="url(#filter0_d_32_608)">
<path d="M81.95 46.0037C84.5331 46.0037 86.627 48.0976 86.627 50.6807V60.0347L81.95 64.7117H77.273V50.6807C77.273 48.0976 79.367 46.0037 81.95 46.0037ZM60.124 46.0037C57.541 46.0037 55.447 48.0976 55.447 50.6807V60.0347L60.124 64.7117H64.801V50.6807C64.801 48.0976 62.7071 46.0037 60.124 46.0037Z" fill="#4C4C64"/>
<path d="M80.3911 36.6434C80.3911 31.4773 76.2032 27.2894 71.0371 27.2894C65.871 27.2894 61.6831 31.4773 61.6831 36.6434V39.7614C61.6831 44.9274 65.871 49.1154 71.0371 49.1154C76.2032 49.1154 80.3911 44.9274 80.3911 39.7614V36.6434Z" fill="url(#paint0_linear_32_608)"/>
<path d="M63.242 14.8174C63.242 7.06828 56.9601 0.786377 49.2109 0.786377C41.4618 0.786377 35.1799 7.06828 35.1799 14.8174V17.9354C35.1799 25.6845 41.4618 31.9664 49.2109 31.9664C56.9601 31.9664 63.242 25.6845 63.242 17.9354V14.8174Z" fill="url(#paint1_linear_32_608)"/>
<path d="M39.8571 41.3204C39.8571 31.8492 32.1792 24.1714 22.7081 24.1714C13.237 24.1714 5.55908 31.8492 5.55908 41.3204V44.4384C5.55908 53.9095 13.237 61.5874 22.7081 61.5874C32.1792 61.5874 39.8571 53.9095 39.8571 44.4384V41.3204Z" fill="url(#paint2_linear_32_608)"/>
<path d="M46.3607 10.4081L15.1807 41.5881L23.9995 50.407L55.1796 19.2269L46.3607 10.4081Z" stroke="#F5CE17" stroke-width="8"/>
<path d="M4 70.9413H41.416V77.1773H4V70.9413Z" fill="#424048"/>
<path d="M13.354 35.0844V60.0284C13.354 63.4724 10.562 66.2644 7.118 66.2644H4V72.5004H41.416V66.2644H38.298C34.854 66.2644 32.062 63.4724 32.062 60.0284V35.0844H13.354Z" fill="url(#paint3_radial_32_608)"/>
<path d="M4 66.2643H41.416V72.5003H4V66.2643Z" fill="#68676B"/>
<path d="M58.5649 50.6744L71.0369 38.2024L83.509 50.6744" stroke="#424048" stroke-width="6"/>
<path d="M71.0371 47.5564C76.2032 47.5564 80.3911 43.3684 80.3911 38.2024C80.3911 33.0363 76.2032 28.8484 71.0371 28.8484C65.871 28.8484 61.6831 33.0363 61.6831 38.2024C61.6831 43.3684 65.871 47.5564 71.0371 47.5564Z" fill="url(#paint4_linear_32_608)"/>
<path d="M81.95 44.4447C84.533 44.4447 86.627 46.5386 86.627 49.1217V58.4757L81.95 63.1527H77.2729V49.1217C77.2729 46.5386 79.3669 44.4447 81.95 44.4447Z" fill="#7A8599"/>
<path d="M46.3607 8.84906L15.1807 40.0291L23.9995 48.848L55.1796 17.6679L46.3607 8.84906Z" stroke="#F9F06B" stroke-width="8"/>
<path d="M22.7081 60.0284C32.1792 60.0284 39.8571 52.3505 39.8571 42.8794C39.8571 33.4082 32.1792 25.7304 22.7081 25.7304C13.237 25.7304 5.55908 33.4082 5.55908 42.8794C5.55908 52.3505 13.237 60.0284 22.7081 60.0284Z" fill="url(#paint5_linear_32_608)"/>
<path d="M22.7081 58.4694C32.1792 58.4694 39.8571 50.7915 39.8571 41.3204C39.8571 31.8492 32.1792 24.1714 22.7081 24.1714C13.237 24.1714 5.55908 31.8492 5.55908 41.3204C5.55908 50.7915 13.237 58.4694 22.7081 58.4694Z" fill="#F9F06B"/>
<path d="M74.3498 39.7616L49.4058 14.8176" stroke="url(#paint6_linear_32_608)" stroke-width="10"/>
<path d="M49.2109 30.4074C56.9601 30.4074 63.242 24.1255 63.242 16.3764C63.242 8.62727 56.9601 2.34538 49.2109 2.34538C41.4618 2.34538 35.1799 8.62727 35.1799 16.3764C35.1799 24.1255 41.4618 30.4074 49.2109 30.4074Z" fill="url(#paint7_linear_32_608)"/>
<path d="M49.2109 28.8484C56.9601 28.8484 63.242 22.5665 63.242 14.8174C63.242 7.06827 56.9601 0.786377 49.2109 0.786377C41.4618 0.786377 35.1799 7.06827 35.1799 14.8174C35.1799 22.5665 41.4618 28.8484 49.2109 28.8484Z" fill="#F9F06B"/>
<path d="M71.0371 45.9974C76.2032 45.9974 80.3911 41.8094 80.3911 36.6434C80.3911 31.4773 76.2032 27.2894 71.0371 27.2894C65.871 27.2894 61.6831 31.4773 61.6831 36.6434C61.6831 41.8094 65.871 45.9974 71.0371 45.9974Z" fill="#F9F06B"/>
<path d="M49.2109 24.1714C54.377 24.1714 58.5649 19.9835 58.5649 14.8174C58.5649 9.65131 54.377 5.46338 49.2109 5.46338C44.0449 5.46338 39.8569 9.65131 39.8569 14.8174C39.8569 19.9835 44.0449 24.1714 49.2109 24.1714Z" fill="url(#paint8_linear_32_608)"/>
<path d="M22.7079 52.2334C28.735 52.2334 33.6209 47.3475 33.6209 41.3204C33.6209 35.2933 28.735 30.4074 22.7079 30.4074C16.6808 30.4074 11.7949 35.2933 11.7949 41.3204C11.7949 47.3475 16.6808 52.2334 22.7079 52.2334Z" fill="url(#paint9_linear_32_608)"/>
<path d="M22.7079 47.5564C26.152 47.5564 28.9439 44.7644 28.9439 41.3204C28.9439 37.8763 26.152 35.0844 22.7079 35.0844C19.2639 35.0844 16.4719 37.8763 16.4719 41.3204C16.4719 44.7644 19.2639 47.5564 22.7079 47.5564Z" fill="url(#paint10_linear_32_608)"/>
<path d="M22.7079 47.5564C26.152 47.5564 28.9439 44.7644 28.9439 41.3204C28.9439 37.8763 26.152 35.0844 22.7079 35.0844C19.2639 35.0844 16.4719 37.8763 16.4719 41.3204C16.4719 44.7644 19.2639 47.5564 22.7079 47.5564Z" fill="url(#paint11_linear_32_608)"/>
<path d="M49.2109 19.4944C51.794 19.4944 53.8879 17.4004 53.8879 14.8174C53.8879 12.2343 51.794 10.1404 49.2109 10.1404C46.6279 10.1404 44.5339 12.2343 44.5339 14.8174C44.5339 17.4004 46.6279 19.4944 49.2109 19.4944Z" fill="url(#paint12_linear_32_608)"/>
<path d="M71.037 42.8794C74.4811 42.8794 77.273 40.0874 77.273 36.6434C77.273 33.1993 74.4811 30.4074 71.037 30.4074C67.593 30.4074 64.801 33.1993 64.801 36.6434C64.801 40.0874 67.593 42.8794 71.037 42.8794Z" fill="url(#paint13_linear_32_608)"/>
<path d="M71.0372 39.7614C72.7592 39.7614 74.1552 38.3654 74.1552 36.6434C74.1552 34.9213 72.7592 33.5254 71.0372 33.5254C69.3152 33.5254 67.9192 34.9213 67.9192 36.6434C67.9192 38.3654 69.3152 39.7614 71.0372 39.7614Z" fill="url(#paint14_linear_32_608)"/>
<path d="M81.9501 50.6807C82.8111 50.6807 83.5091 49.9827 83.5091 49.1217C83.5091 48.2607 82.8111 47.5627 81.9501 47.5627C81.0891 47.5627 80.3911 48.2607 80.3911 49.1217C80.3911 49.9827 81.0891 50.6807 81.9501 50.6807Z" fill="url(#paint15_radial_32_608)"/>
<path d="M60.124 44.4447C57.541 44.4447 55.447 46.5386 55.447 49.1217V58.4757L60.124 63.1527H64.801V49.1217C64.801 46.5386 62.7071 44.4447 60.124 44.4447Z" fill="#7A8599"/>
<path d="M60.1241 50.6807C59.2631 50.6807 58.5651 49.9827 58.5651 49.1217C58.5651 48.2607 59.2631 47.5627 60.1241 47.5627C60.9851 47.5627 61.6831 48.2607 61.6831 49.1217C61.6831 49.9827 60.9851 50.6807 60.1241 50.6807Z" fill="url(#paint16_radial_32_608)"/>
</g>
<defs>
<filter id="filter0_d_32_608" x="0" y="0.786377" width="90.627" height="84.391" filterUnits="userSpaceOnUse" color-interpolation-filters="sRGB">
<feFlood flood-opacity="0" result="BackgroundImageFix"/>
<feColorMatrix in="SourceAlpha" type="matrix" values="0 0 0 0 0 0 0 0 0 0 0 0 0 0 0 0 0 0 127 0" result="hardAlpha"/>
<feOffset dy="4"/>
<feGaussianBlur stdDeviation="2"/>
<feComposite in2="hardAlpha" operator="out"/>
<feColorMatrix type="matrix" values="0 0 0 0 0 0 0 0 0 0 0 0 0 0 0 0 0 0 0.15 0"/>
<feBlend mode="normal" in2="BackgroundImageFix" result="effect1_dropShadow_32_608"/>
<feBlend mode="normal" in="SourceGraphic" in2="effect1_dropShadow_32_608" result="shape"/>
</filter>
<linearGradient id="paint0_linear_32_608" x1="61.6831" y1="38.2024" x2="80.3911" y2="38.2024" gradientUnits="userSpaceOnUse">
<stop stop-color="#F6D32D"/>
<stop offset="0.182" stop-color="#F9F06B"/>
<stop offset="0.795" stop-color="#E5A50A"/>
<stop offset="1" stop-color="#F6D32D"/>
</linearGradient>
<linearGradient id="paint1_linear_32_608" x1="35.1799" y1="16.3764" x2="63.242" y2="16.3764" gradientUnits="userSpaceOnUse">
<stop stop-color="#F6D32D"/>
<stop offset="0.182" stop-color="#F9F06B"/>
<stop offset="0.795" stop-color="#E5A50A"/>
<stop offset="1" stop-color="#F6D32D"/>
</linearGradient>
<linearGradient id="paint2_linear_32_608" x1="5.55908" y1="42.8794" x2="39.8571" y2="42.8794" gradientUnits="userSpaceOnUse">
<stop stop-color="#F6D32D"/>
<stop offset="0.182" stop-color="#F9F06B"/>
<stop offset="0.795" stop-color="#E5A50A"/>
<stop offset="1" stop-color="#F6D32D"/>
</linearGradient>
<radialGradient id="paint3_radial_32_608" cx="0" cy="0" r="1" gradientUnits="userSpaceOnUse" gradientTransform="translate(22.708 66.2644) scale(8.18476 5.72933)">
<stop stop-color="#949390"/>
<stop offset="1" stop-color="#767579"/>
</radialGradient>
<linearGradient id="paint4_linear_32_608" x1="61.6831" y1="38.2024" x2="80.3911" y2="38.2024" gradientUnits="userSpaceOnUse">
<stop stop-color="#F6D32D"/>
<stop offset="0.182" stop-color="#F9F06B"/>
<stop offset="0.795" stop-color="#E5A50A"/>
<stop offset="1" stop-color="#F6D32D"/>
</linearGradient>
<linearGradient id="paint5_linear_32_608" x1="5.55908" y1="42.8794" x2="39.8571" y2="42.8794" gradientUnits="userSpaceOnUse">
<stop stop-color="#F6D32D"/>
<stop offset="0.182" stop-color="#F9F06B"/>
<stop offset="0.795" stop-color="#E5A50A"/>
<stop offset="1" stop-color="#F6D32D"/>
</linearGradient>
<linearGradient id="paint6_linear_32_608" x1="59.6691" y1="29.4983" x2="64.3275" y2="24.8398" gradientUnits="userSpaceOnUse">
<stop stop-color="#68676B"/>
<stop offset="0.733" stop-color="#949390"/>
<stop offset="1" stop-color="#8B8A87"/>
</linearGradient>
<linearGradient id="paint7_linear_32_608" x1="35.1799" y1="16.3764" x2="63.242" y2="16.3764" gradientUnits="userSpaceOnUse">
<stop stop-color="#F6D32D"/>
<stop offset="0.182" stop-color="#F9F06B"/>
<stop offset="0.795" stop-color="#E5A50A"/>
<stop offset="1" stop-color="#F6D32D"/>
</linearGradient>
<linearGradient id="paint8_linear_32_608" x1="51.5054" y1="23.3806" x2="46.3343" y2="4.08168" gradientUnits="userSpaceOnUse">
<stop stop-color="#191622"/>
<stop offset="1" stop-color="#424048"/>
</linearGradient>
<linearGradient id="paint9_linear_32_608" x1="25.3849" y1="51.311" x2="19.352" y2="28.7955" gradientUnits="userSpaceOnUse">
<stop stop-color="#191622"/>
<stop offset="1" stop-color="#424048"/>
</linearGradient>
<linearGradient id="paint10_linear_32_608" x1="21.3255" y1="36.161" x2="24.0904" y2="46.4797" gradientUnits="userSpaceOnUse">
<stop stop-color="#2E3436"/>
<stop offset="1" stop-color="#555753"/>
</linearGradient>
<linearGradient id="paint11_linear_32_608" x1="21.3255" y1="36.161" x2="24.0904" y2="46.4797" gradientUnits="userSpaceOnUse">
<stop stop-color="#191622"/>
<stop offset="1" stop-color="#424048"/>
</linearGradient>
<linearGradient id="paint12_linear_32_608" x1="48.1741" y1="10.9481" x2="50.2478" y2="18.6871" gradientUnits="userSpaceOnUse">
<stop stop-color="#191622"/>
<stop offset="1" stop-color="#424048"/>
</linearGradient>
<linearGradient id="paint13_linear_32_608" x1="72.5668" y1="42.3523" x2="69.1194" y2="29.4863" gradientUnits="userSpaceOnUse">
<stop stop-color="#191622"/>
<stop offset="1" stop-color="#424048"/>
</linearGradient>
<linearGradient id="paint14_linear_32_608" x1="70.346" y1="34.0637" x2="71.7284" y2="39.223" gradientUnits="userSpaceOnUse">
<stop stop-color="#191622"/>
<stop offset="1" stop-color="#424048"/>
</linearGradient>
<radialGradient id="paint15_radial_32_608" cx="0" cy="0" r="1" gradientUnits="userSpaceOnUse" gradientTransform="translate(81.9258 48.3666) scale(1.559)">
<stop stop-color="#555753"/>
<stop offset="1" stop-color="#2E3436"/>
</radialGradient>
<radialGradient id="paint16_radial_32_608" cx="0" cy="0" r="1" gradientUnits="userSpaceOnUse" gradientTransform="translate(60.1485 48.3666) rotate(180) scale(1.559)">
<stop stop-color="#555753"/>
<stop offset="1" stop-color="#2E3436"/>
</radialGradient>
</defs>
</svg>
