<svg width="80" height="82" viewBox="0 0 80 82" fill="none" xmlns="http://www.w3.org/2000/svg">
<g filter="url(#filter0_d_32_310)">
<path d="M75.6166 37.5926C75.6166 47.0896 71.844 56.1975 65.1286 62.9129C58.4132 69.6283 49.3053 73.4009 39.8083 73.4009C35.1059 73.4009 30.4495 72.4747 26.1051 70.6752C21.7606 68.8756 17.8131 66.238 14.488 62.9129C11.1629 59.5878 8.52528 55.6403 6.72574 51.2959C4.92621 46.9514 4 42.295 4 37.5926C4 32.8902 4.92621 28.2338 6.72575 23.8894C8.52528 19.5449 11.1629 15.5974 14.488 12.2723C17.8131 8.94721 21.7606 6.30959 26.1051 4.51005C30.4495 2.71052 35.1059 1.78432 39.8083 1.78432C49.3053 1.78432 58.4132 5.55697 65.1286 12.2723C71.8439 18.9877 75.6166 28.0957 75.6166 37.5926Z" fill="#DEDDDA"/>
<path d="M73.2294 36.399C73.2294 17.9411 58.2662 2.97794 39.8083 2.97794C21.3503 2.97794 6.38721 17.9411 6.38721 36.399V37.5926C6.38721 56.0506 21.3503 71.0137 39.8083 71.0137C58.2662 71.0137 73.2294 56.0506 73.2294 37.5926V36.399Z" fill="#D5D3CF"/>
<path d="M75.6166 36.399C75.6166 45.896 71.8439 55.0039 65.1286 61.7193C58.4132 68.4346 49.3053 72.2073 39.8083 72.2073C35.1059 72.2073 30.4495 71.2811 26.1051 69.4816C21.7606 67.682 17.8131 65.0444 14.488 61.7193C11.1629 58.3942 8.52528 54.4467 6.72575 50.1022C4.92621 45.7578 4 41.1014 4 36.399C4 31.6966 4.92621 27.0402 6.72574 22.6958C8.52528 18.3513 11.1629 14.4038 14.488 11.0787C17.8131 7.7536 21.7606 5.11598 26.1051 3.31644C30.4495 1.51691 35.1059 0.590697 39.8083 0.590698C49.3053 0.5907 58.4132 4.36335 65.1286 11.0787C71.844 17.7941 75.6166 26.9021 75.6166 36.399Z" fill="#F6F5F4"/>
<path d="M39.8083 68.6265C57.607 68.6265 72.0358 54.1978 72.0358 36.399C72.0358 18.6003 57.607 4.17155 39.8083 4.17155C22.0095 4.17155 7.58081 18.6003 7.58081 36.399C7.58081 54.1978 22.0095 68.6265 39.8083 68.6265Z" fill="#3D3846"/>
<path opacity="0.2" fill-rule="evenodd" clip-rule="evenodd" d="M55.346 20.2804C55.259 20.2775 55.1725 20.2936 55.0924 20.3277C55.0123 20.3617 54.9406 20.4128 54.8823 20.4774L41.7678 34.6008C41.2799 34.2815 40.7213 34.0862 40.1408 34.0319C39.5602 33.9775 38.9751 34.0658 38.4364 34.289L29.9494 24.859C29.8309 24.7234 29.6832 24.6164 29.5175 24.5459C29.3518 24.4755 29.1723 24.4433 28.9924 24.4519C28.765 24.4628 28.5455 24.5385 28.3596 24.6699C28.1737 24.8013 28.0292 24.9831 27.9431 25.1938C27.857 25.4045 27.8328 25.6354 27.8734 25.8594C27.9141 26.0834 28.0178 26.2912 28.1724 26.4582L36.6585 35.8874C36.3961 36.3701 36.2483 36.9068 36.2266 37.4558C36.2049 38.0048 36.3098 38.5515 36.5332 39.0535C36.8345 39.7252 37.3356 40.2877 37.9681 40.6644L30.891 58.8632C30.8615 58.9365 30.847 59.015 30.8481 59.0941C30.8492 59.1731 30.8659 59.2511 30.8974 59.3236C30.9289 59.3962 30.9744 59.4617 31.0314 59.5165C31.0883 59.5713 31.1556 59.6143 31.2293 59.6429C31.3029 59.6715 31.3816 59.6853 31.4606 59.6833C31.5396 59.6814 31.6175 59.6638 31.6896 59.6315C31.7618 59.5993 31.8269 59.553 31.8811 59.4955C31.9352 59.4379 31.9775 59.3702 32.0053 59.2962L39.0819 41.0989C39.8152 41.2508 40.5778 41.169 41.2622 40.8649C42.1295 40.478 42.8076 39.7624 43.1473 38.8756C43.487 37.9887 43.4605 37.0032 43.0736 36.1359C42.958 35.8803 42.8128 35.6391 42.6409 35.4173L55.7583 21.291C55.8381 21.2076 55.892 21.1028 55.9135 20.9895C55.9351 20.8761 55.9234 20.7589 55.8798 20.652C55.8362 20.5451 55.7626 20.4532 55.6678 20.3872C55.5731 20.3213 55.4613 20.2842 55.346 20.2804Z" fill="black"/>
<path fill-rule="evenodd" clip-rule="evenodd" d="M39.8084 36.399L29.0659 24.4629L39.8084 36.399Z" fill="#C0BFBC"/>
<path d="M39.8084 36.399L29.0659 24.4629" stroke="url(#paint0_linear_32_310)" stroke-width="4.00626" stroke-linecap="round"/>
<path d="M39.8083 36.3989L55.3253 19.6884" stroke="white" stroke-width="2.00313" stroke-linecap="round"/>
<path d="M39.8084 36.399L31.4531 57.884" stroke="#ED333B" stroke-width="2.00313" stroke-linecap="round"/>
<path d="M41.267 39.6693C43.0731 38.8637 43.8842 36.7465 43.0785 34.9404C42.2729 33.1343 40.1557 32.3232 38.3496 33.1288C36.5435 33.9344 35.7324 36.0516 36.538 37.8577C37.3436 39.6638 39.4609 40.4749 41.267 39.6693Z" fill="#D5D3CF"/>
<path d="M39.8256 37.5944C40.4858 37.5944 41.0211 37.0592 41.0211 36.3989C41.0211 35.7387 40.4858 35.2035 39.8256 35.2035C39.1654 35.2035 38.6301 35.7387 38.6301 36.3989C38.6301 37.0592 39.1654 37.5944 39.8256 37.5944Z" fill="#131C1A"/>
<path d="M39.8257 37.5926C40.4849 37.5926 41.0193 37.0583 41.0193 36.399C41.0193 35.7398 40.4849 35.2054 39.8257 35.2054C39.1665 35.2054 38.6321 35.7398 38.6321 36.399C38.6321 37.0583 39.1665 37.5926 39.8257 37.5926Z" fill="#131C1A"/>
<path opacity="0.1" d="M39.8083 4.17155C31.261 4.17155 23.0638 7.56694 17.02 13.6108C10.9762 19.6546 7.58081 27.8518 7.58081 36.399C7.58654 36.632 7.5948 36.865 7.60558 37.0978C7.73544 28.6409 11.1847 20.574 17.2091 14.6375C23.2336 8.70093 31.3504 5.37067 39.8083 5.36516C48.2314 5.36966 56.3181 8.67174 62.3369 14.5644C68.3557 20.4571 71.8282 28.4721 72.011 36.8933C72.0205 36.7286 72.0288 36.5638 72.0358 36.399C72.0358 32.1669 71.2022 27.9761 69.5826 24.0661C67.963 20.1561 65.5891 16.6034 62.5965 13.6108C59.6039 10.6182 56.0512 8.24431 52.1412 6.62472C48.2312 5.00514 44.0405 4.17155 39.8083 4.17155Z" fill="black"/>
</g>
<defs>
<filter id="filter0_d_32_310" x="0" y="0.590698" width="79.6167" height="80.8102" filterUnits="userSpaceOnUse" color-interpolation-filters="sRGB">
<feFlood flood-opacity="0" result="BackgroundImageFix"/>
<feColorMatrix in="SourceAlpha" type="matrix" values="0 0 0 0 0 0 0 0 0 0 0 0 0 0 0 0 0 0 127 0" result="hardAlpha"/>
<feOffset dy="4"/>
<feGaussianBlur stdDeviation="2"/>
<feComposite in2="hardAlpha" operator="out"/>
<feColorMatrix type="matrix" values="0 0 0 0 0 0 0 0 0 0 0 0 0 0 0 0 0 0 0.15 0"/>
<feBlend mode="normal" in2="BackgroundImageFix" result="effect1_dropShadow_32_310"/>
<feBlend mode="normal" in="SourceGraphic" in2="effect1_dropShadow_32_310" result="shape"/>
</filter>
<linearGradient id="paint0_linear_32_310" x1="31.6519" y1="27.3361" x2="37.1877" y2="33.4871" gradientUnits="userSpaceOnUse">
<stop stop-color="#9A9996"/>
<stop offset="1" stop-color="#77767B"/>
</linearGradient>
</defs>
</svg>
