<svg width="65" height="77" viewBox="0 0 65 77" fill="none" xmlns="http://www.w3.org/2000/svg">
<path d="M59.1808 36.7399H10.0722C7.05868 36.7399 4.61572 39.1828 4.61572 42.1964V71.5251C4.61572 74.5386 7.05868 76.9816 10.0722 76.9816H59.1808C62.1943 76.9816 64.6373 74.5386 64.6373 71.5251V42.1964C64.6373 39.1828 62.1943 36.7399 59.1808 36.7399Z" fill="#DEDDDA"/>
<path d="M10.0722 76.9818H59.1807C62.1942 76.9818 64.6372 74.5389 64.6372 71.5253V55.1558C64.6372 52.1423 62.1942 49.6993 59.1807 49.6993H10.0722C7.05862 49.6993 4.61567 52.1423 4.61567 55.1558V71.5253C4.61567 74.5389 7.05862 76.9818 10.0722 76.9818Z" fill="url(#paint0_linear_32_518)"/>
<path d="M59.1808 0.590698H10.0722C7.05868 0.590698 4.61572 3.03366 4.61572 6.0472V66.0687C4.61572 69.0823 7.05868 71.5252 10.0722 71.5252H59.1808C62.1943 71.5252 64.6373 69.0823 64.6373 66.0687V6.0472C64.6373 3.03366 62.1943 0.590698 59.1808 0.590698Z" fill="#F6F5F4"/>
<path d="M10.072 46.9709V53.7916H53.724V51.0633H59.1806V46.9709H10.072Z" fill="#DEDDDA"/>
<path opacity="0.1" d="M23.7135 51.0636C23.0023 51.0633 22.3026 51.243 21.6796 51.5861C21.0365 51.9401 20.5028 52.4639 20.1367 53.1002C19.733 52.7142 19.1389 52.4277 18.257 52.4277H4.61572V55.156H19.0857C19.3947 55.156 19.5734 55.3613 19.6143 55.6621C19.615 55.6859 19.6211 55.7085 19.6211 55.733V56.5201H4.61572V59.2484H14.1312L11.4029 61.9766H4.61572V63.3407H10.2598C9.90853 64.1108 9.95423 65.1346 11.0155 66.2225L13.8966 63.3407H17.68C18.5559 63.3386 19.3954 62.9896 20.0148 62.3703C20.6341 61.7509 20.9831 60.9114 20.9852 60.0354V59.2681H26.4417V60.0354C26.4439 60.9114 26.7928 61.7509 27.4122 62.3703C28.0316 62.9896 28.8711 63.3386 29.747 63.3407H33.5502L36.4115 66.202C37.4632 65.1243 37.5164 64.1081 37.1754 63.3407H42.2342C43.1102 63.3386 43.9496 62.9896 44.569 62.3703C45.1884 61.7509 45.5373 60.9114 45.5395 60.0354V59.2681H46.9036V53.7919C46.9036 53.0668 46.3389 52.4277 45.5395 52.4277H29.17C29.17 52.4277 28.0937 52.4291 27.293 53.1057C26.927 52.4669 26.3923 51.9412 25.7474 51.5861C25.1244 51.243 24.4247 51.0633 23.7135 51.0636ZM23.7135 52.4305C24.1896 52.4305 24.6656 52.5464 25.0899 52.781C25.937 53.2483 26.4417 54.0947 26.4417 55.0046C26.4417 55.0319 26.4431 55.0584 26.4458 55.085C26.4451 55.1103 26.4417 55.1307 26.4417 55.156V56.5201H20.9852V55.156L20.9798 55.0973C20.9839 55.0666 20.9852 55.0353 20.9852 55.0039C20.9852 54.0947 21.49 53.2482 22.3371 52.7804C22.759 52.5495 23.2325 52.4292 23.7135 52.4305ZM28.3413 55.1669H44.0847C44.1385 55.3463 44.1754 55.5338 44.1754 55.733V56.5399H30.6071L30.5873 56.5201H27.8059V55.733C27.8059 55.7098 27.812 55.688 27.8127 55.6648C27.8297 55.3674 28.035 55.1669 28.3413 55.1669ZM17.9692 59.2681H19.6211V60.0354C19.6237 60.2911 19.5752 60.5446 19.4785 60.7813C19.3819 61.018 19.239 61.233 19.0582 61.4138C18.8775 61.5945 18.6625 61.7374 18.4258 61.834C18.1891 61.9307 17.9356 61.9792 17.68 61.9766H15.2607L17.9692 59.2681ZM27.8059 59.2681H29.4776L32.1854 61.9766H29.747C29.4914 61.9792 29.2378 61.9307 29.0012 61.834C28.7645 61.7374 28.5495 61.5945 28.3687 61.4138C28.188 61.233 28.0451 61.018 27.9484 60.7813C27.8518 60.5446 27.8033 60.2911 27.8059 60.0354V59.2681ZM33.3353 59.2681H44.1754V60.0354C44.1779 60.2911 44.1295 60.5446 44.0328 60.7813C43.9362 61.018 43.7933 61.233 43.6125 61.4138C43.4318 61.5945 43.2167 61.7374 42.9801 61.834C42.7434 61.9307 42.4898 61.9792 42.2342 61.9766H36.0438L33.3353 59.2681Z" fill="black"/>
<path d="M11.0155 64.858C9.57499 63.382 9.99787 62.0179 10.7597 61.2553L16.839 55.1754H46.9036V57.9037H17.9698L11.0155 64.858Z" fill="#949390"/>
<path d="M36.4113 64.8375C37.8518 63.3615 37.4289 61.9974 36.6671 61.2355L30.5885 55.1556H0.523193V57.8839H29.457L36.4113 64.8375Z" fill="#949390"/>
<path d="M20.303 53.6394C20.3029 53.0677 20.4604 52.5059 20.7597 52.0107C21.0591 51.5155 21.4896 51.1043 22.0081 50.8184C22.5266 50.5326 23.1147 50.3821 23.7133 50.3821C24.3119 50.3821 24.9 50.5326 25.4185 50.8184C25.937 51.1043 26.3675 51.5155 26.6668 52.0107C26.9662 52.5059 27.1237 53.0677 27.1236 53.6394" stroke="#1A5FB4" stroke-width="2" stroke-linecap="round"/>
<path d="M18.7547 61.2943H4.11762C3.91415 61.2948 3.71257 61.2551 3.52448 61.1775C3.33639 61.0999 3.1655 60.9858 3.02162 60.842C2.87774 60.6981 2.76371 60.5272 2.6861 60.3391C2.60848 60.151 2.5688 59.9495 2.56934 59.746V54.6578C2.5688 54.4543 2.60848 54.2527 2.6861 54.0646C2.76371 53.8765 2.87774 53.7057 3.02162 53.5618C3.1655 53.4179 3.33639 53.3039 3.52448 53.2263C3.71257 53.1486 3.91415 53.109 4.11762 53.1095H18.7547C18.9582 53.109 19.1597 53.1486 19.3478 53.2263C19.5359 53.3039 19.7068 53.4179 19.8507 53.5618C19.9946 53.7057 20.1086 53.8765 20.1862 54.0646C20.2638 54.2527 20.3035 54.4543 20.303 54.6578V59.746C20.3035 59.9495 20.2638 60.151 20.1862 60.3391C20.1086 60.5272 19.9946 60.6981 19.8507 60.842C19.7068 60.9858 19.5359 61.0999 19.3478 61.1775C19.1597 61.2551 18.9582 61.2948 18.7547 61.2943Z" fill="white" fill-opacity="0.441"/>
<path d="M5.19187 61.2944H17.6804C18.0251 61.2952 18.3665 61.2279 18.685 61.0964C19.0036 60.9649 19.293 60.7717 19.5367 60.5281C19.7804 60.2844 19.9735 59.9949 20.105 59.6764C20.2365 59.3578 20.3038 59.0165 20.303 58.6718V54.368C20.3038 54.0234 20.2365 53.682 20.105 53.3635C19.9735 53.0449 19.7804 52.7555 19.5367 52.5118C19.293 52.2681 19.0036 52.075 18.685 51.9435C18.3665 51.812 18.0251 51.7447 17.6804 51.7455H5.19187C4.84725 51.7447 4.50586 51.812 4.18732 51.9435C3.86877 52.075 3.57935 52.2681 3.33566 52.5118C3.09197 52.7555 2.89883 53.0449 2.76732 53.3635C2.63582 53.682 2.56853 54.0234 2.56934 54.368V58.6718C2.56853 59.0165 2.63582 59.3578 2.76732 59.6764C2.89883 59.9949 3.09197 60.2844 3.33566 60.5281C3.57935 60.7717 3.86877 60.9649 4.18732 61.0964C4.50586 61.2279 4.84725 61.2952 5.19187 61.2944Z" stroke="#1A5FB4" stroke-width="2" stroke-linecap="round"/>
<path d="M43.3089 61.2943H28.6718C28.4683 61.2948 28.2668 61.2551 28.0787 61.1775C27.8906 61.0999 27.7197 60.9858 27.5758 60.842C27.4319 60.6981 27.3179 60.5272 27.2403 60.3391C27.1627 60.151 27.123 59.9495 27.1235 59.746V54.6578C27.123 54.4543 27.1627 54.2527 27.2403 54.0646C27.3179 53.8765 27.4319 53.7057 27.5758 53.5618C27.7197 53.4179 27.8906 53.3039 28.0787 53.2263C28.2668 53.1486 28.4683 53.109 28.6718 53.1095H43.3089C43.5124 53.109 43.7139 53.1486 43.902 53.2263C44.0901 53.3039 44.261 53.4179 44.4049 53.5618C44.5488 53.7057 44.6628 53.8765 44.7404 54.0646C44.818 54.2527 44.8577 54.4543 44.8572 54.6578V59.746C44.8577 59.9495 44.818 60.151 44.7404 60.3391C44.6628 60.5272 44.5488 60.6981 44.4049 60.842C44.261 60.9858 44.0901 61.0999 43.902 61.1775C43.7139 61.2551 43.5124 61.2948 43.3089 61.2943Z" fill="white" fill-opacity="0.441"/>
<path d="M29.7461 61.2944H42.2346C42.5793 61.2952 42.9207 61.2279 43.2392 61.0964C43.5578 60.9649 43.8472 60.7717 44.0909 60.5281C44.3345 60.2844 44.5277 59.9949 44.6592 59.6764C44.7907 59.3578 44.858 59.0165 44.8572 58.6718V54.368C44.858 54.0234 44.7907 53.682 44.6592 53.3635C44.5277 53.0449 44.3345 52.7555 44.0909 52.5118C43.8472 52.2681 43.5578 52.075 43.2392 51.9435C42.9207 51.812 42.5793 51.7447 42.2346 51.7455H29.7461C29.4015 51.7447 29.0601 51.812 28.7415 51.9435C28.423 52.075 28.1335 52.2681 27.8899 52.5118C27.6462 52.7555 27.453 53.0449 27.3215 53.3635C27.19 53.682 27.1227 54.0234 27.1235 54.368V58.6718C27.1227 59.0165 27.19 59.3578 27.3215 59.6764C27.453 59.9949 27.6462 60.2844 27.8899 60.5281C28.1335 60.7717 28.423 60.9649 28.7415 61.0964C29.0601 61.2279 29.4015 61.2952 29.7461 61.2944Z" stroke="#1A5FB4" stroke-width="2" stroke-linecap="round"/>
<path d="M46.9035 52.4277C46.9035 51.7027 46.3387 51.0636 45.5393 51.0636H29.1698C29.1698 51.0636 26.4416 51.0636 26.4416 53.7919V56.5201H27.8057V54.3375C27.8057 54.0183 28.0212 53.8028 28.3411 53.8028H44.3219C44.6418 53.8028 44.9528 54.0326 44.8573 54.3382V56.5201H45.5393C46.9035 56.5201 46.9035 57.8842 46.9035 57.8842V52.4277ZM20.9851 56.5201V53.7919C20.9851 53.7919 20.9851 51.0636 18.2568 51.0636H1.88732C1.2871 51.0636 0.523193 51.6809 0.523193 52.4277V57.8842C0.523193 57.8842 0.523193 56.5201 1.88732 56.5201H2.56938V54.3273C2.56938 54.0074 2.78491 53.7919 3.1048 53.7919H19.0855C19.4054 53.7919 19.5882 54.0094 19.621 54.3273L19.7062 56.5201H20.9851Z" fill="#1A5FB4"/>
<path d="M59.1812 21.0524H37.3552V42.8784H59.1812V21.0524Z" fill="#F66151"/>
<path d="M38.521 38.2451C42.0642 37.2532 45.3828 35.5872 48.295 33.3384C49.2778 32.5786 50.2307 31.7308 50.8302 30.6429C51.1303 30.0986 51.3356 29.4984 51.3922 28.8797C51.4481 28.2611 51.3499 27.6241 51.073 27.0682C50.8299 26.5898 50.4727 26.1786 50.0329 25.8712C49.5932 25.5648 49.0956 25.3517 48.5705 25.245C47.5249 25.0268 46.4261 25.2014 45.4269 25.5792C44.2251 26.0355 43.1256 26.7967 42.3528 27.8239C41.5794 28.8518 41.1483 30.1511 41.2479 31.4334C41.3134 32.2641 41.5978 33.0737 42.0363 33.7824C42.4749 34.4917 43.0656 35.1022 43.7388 35.594C45.0859 36.5775 46.7364 37.0747 48.3904 37.2868C52.1554 37.7684 56.0875 36.7992 59.1977 34.6234L59.1814 31.0848C56.7437 33.7742 53.2767 35.5067 49.6625 35.8422C48.1026 35.9868 46.4773 35.8688 45.0681 35.1834C44.3635 34.841 43.7224 34.3581 43.232 33.7469C42.7409 33.1365 42.404 32.3964 42.3078 31.6189C42.1673 30.4846 42.552 29.3135 43.2613 28.4173C43.9707 27.5211 44.9849 26.8902 46.0762 26.5484C46.6785 26.3609 47.3162 26.2558 47.9423 26.3363C48.5678 26.4168 49.1816 26.6958 49.5895 27.1773C49.9196 27.5674 50.1011 28.0728 50.1324 28.583C50.1645 29.0932 50.0526 29.6068 49.8494 30.0761C49.4436 31.0139 48.6947 31.7567 47.9314 32.436C45.1565 34.9048 41.9715 36.8707 38.521 38.2451Z" fill="white"/>
<path fill-rule="evenodd" clip-rule="evenodd" d="M10.072 8.77563V11.5039H37.3545V8.77563H10.072Z" fill="#77767B"/>
<path d="M10.072 29.2374H34.6263V41.5146H23.7133V44.2428H10.072V29.2374ZM34.6263 18.3244V26.5092H10.072V14.2321H59.1806V18.3244H34.6263Z" fill="#DEDDDA"/>
<path d="M64.6371 69.2432C64.6152 70.5824 64.0667 71.8592 63.1103 72.797C62.1539 73.7348 60.8666 74.2581 59.5271 74.2536H59.1861V74.9357H59.5271C60.5688 74.9368 61.5915 74.6568 62.4874 74.1252C63.3832 73.5937 64.1191 72.8303 64.6173 71.9155C64.6262 71.7859 64.6371 71.657 64.6371 71.5254V69.2432ZM35.9905 74.2536L59.1806 74.9357V74.2536H35.9905Z" fill="#C0BFBC" fill-opacity="0.272"/>
<defs>
<linearGradient id="paint0_linear_32_518" x1="64.6372" y1="64.7047" x2="4.61567" y2="64.7047" gradientUnits="userSpaceOnUse">
<stop stop-color="#C0BFBC"/>
<stop offset="0.045" stop-color="#F6F5F4"/>
<stop offset="0.091" stop-color="#DEDDDA"/>
<stop offset="0.909" stop-color="#DEDDDA"/>
<stop offset="0.955" stop-color="#F6F5F4"/>
<stop offset="1" stop-color="#C0BFBC"/>
</linearGradient>
</defs>
</svg>
