<svg width="84" height="85" viewBox="0 0 84 85" fill="none" xmlns="http://www.w3.org/2000/svg">
<g filter="url(#filter0_d_32_539)">
<path d="M73.7542 42.3897H10.3352C7.15106 42.3897 4.56982 44.971 4.56982 48.1551V71.2165C4.56982 74.4006 7.15106 76.9819 10.3352 76.9819H73.7542C76.9383 76.9819 79.5195 74.4006 79.5195 71.2165V48.1551C79.5195 44.971 76.9383 42.3897 73.7542 42.3897Z" fill="url(#paint0_linear_32_539)"/>
<path d="M10.3352 0.590698C7.14118 0.590698 4.56982 3.16205 4.56982 6.35606V66.8924C4.56982 70.0864 7.14118 72.6577 10.3352 72.6577H73.7542C76.9482 72.6577 79.5195 70.0864 79.5195 66.8924V6.35606C79.5195 3.16205 76.9482 0.590698 73.7542 0.590698H43.486V2.03204H40.6033V0.590698H10.3352Z" fill="url(#paint1_radial_32_539)"/>
<path d="M61.4507 7.79753H60.1134C54.9104 7.79753 50.6926 12.0153 50.6926 17.2183V18.5556C50.6926 23.7585 54.9104 27.9763 60.1134 27.9763H61.4507C66.6536 27.9763 70.8714 23.7585 70.8714 18.5556V17.2183C70.8714 12.0153 66.6536 7.79753 61.4507 7.79753Z" fill="#F5C211"/>
<path d="M56.406 20.0512H65.0541V20.7696C65.0541 22.3617 63.7634 23.6523 62.1714 23.6523H59.2887C57.6966 23.6523 56.406 22.3617 56.406 20.7696V20.0512Z" fill="url(#paint2_linear_32_539)"/>
<path d="M65.0541 19.3283H56.406V20.7696H65.0541V19.3283Z" fill="white"/>
<path d="M56.406 15.7249C56.406 15.3268 56.7287 15.0042 57.1267 15.0042C57.5247 15.0042 57.8473 15.3268 57.8473 15.7249V17.8869H56.406V15.7249Z" fill="#B45600"/>
<path d="M63.6128 15.7249C63.6128 15.3268 63.9355 15.0042 64.3335 15.0042C64.7315 15.0042 65.0541 15.3268 65.0541 15.7249V17.8869H63.6128V15.7249Z" fill="#B45600"/>
<path d="M16.1007 9.23891V21.4903C16.1007 21.4903 16.1898 23.5219 14.0146 24.6095L15.304 27.1867C18.8942 25.3916 18.9833 21.4903 18.9833 21.4903V20.7696H27.6314V22.211C27.6314 22.211 27.6113 23.0523 27.2922 23.8184C26.9729 24.5845 26.6945 25.0937 25.4694 25.0937H24.7487L23.3074 27.9763H24.7487H25.4694C27.8476 27.9763 29.3708 26.3235 29.9524 24.9276C30.5341 23.5317 30.5141 22.211 30.5141 22.211V9.23891H16.1007ZM18.9833 12.1216H27.6314V13.5629H18.9833V12.1216ZM18.9833 16.4456H27.6314V17.887H18.9833V16.4456Z" fill="#62A0EA"/>
<path d="M63.6646 45.2722C63.2823 45.2722 62.9157 45.4241 62.6454 45.6944C62.3751 45.9647 62.2233 46.3313 62.2233 46.7136C62.2233 47.0958 62.3751 47.4624 62.6454 47.7327C62.9157 48.003 63.2823 48.1549 63.6646 48.1549C64.0469 48.1549 64.4135 48.003 64.6838 47.7327C64.9541 47.4624 65.106 47.0958 65.106 46.7136C65.106 46.3313 64.9541 45.9647 64.6838 45.6944C64.4135 45.4241 64.0469 45.2722 63.6646 45.2722ZM60.7819 49.5962C60.3997 49.5962 60.0331 49.7481 59.7627 50.0184C59.4924 50.2887 59.3406 50.6553 59.3406 51.0376C59.3406 51.4198 59.4924 51.7865 59.7627 52.0568C60.0331 52.3271 60.3997 52.4789 60.7819 52.4789C61.1642 52.4789 61.5308 52.3271 61.8011 52.0568C62.0714 51.7865 62.2233 51.4198 62.2233 51.0376C62.2233 50.6553 62.0714 50.2887 61.8011 50.0184C61.5308 49.7481 61.1642 49.5962 60.7819 49.5962ZM66.5473 49.5962C66.165 49.5962 65.7984 49.7481 65.5281 50.0184C65.2578 50.2887 65.106 50.6553 65.106 51.0376C65.106 51.4198 65.2578 51.7865 65.5281 52.0568C65.7984 52.3271 66.165 52.4789 66.5473 52.4789C66.9296 52.4789 67.2962 52.3271 67.5665 52.0568C67.8368 51.7865 67.9886 51.4198 67.9886 51.0376C67.9886 50.6553 67.8368 50.2887 67.5665 50.0184C67.2962 49.7481 66.9296 49.5962 66.5473 49.5962ZM70.8713 53.9203L67.9886 55.3616V58.2443H65.106V56.8029V55.3616L62.2233 56.8029V58.2443L56.4579 58.2428L56.51 61.127C56.5093 61.9394 55.8813 62.5669 55.0687 62.5669C54.2555 62.5669 53.6273 61.9387 53.6273 61.1256H50.7446C50.7446 63.4966 52.6976 65.4496 55.0687 65.4496C57.4397 65.4496 59.3927 63.4966 59.3927 61.1256L70.8713 61.127V53.9203ZM59.3927 56.8001L56.51 58.2415H59.3927V56.8001Z" fill="#26A269"/>
<path d="M50.7446 61.1248L53.6273 59.6835V61.1248H50.7446Z" fill="#26A269"/>
<path d="M4.56982 36.6242H79.5195" stroke="#DEDDDA" stroke-width="4"/>
<path d="M4.56982 35.9038H79.5195" stroke="#C0BFBC" stroke-width="2"/>
<path d="M42.0447 2.03206V74.0991" stroke="#DEDDDA" stroke-width="4"/>
<path d="M21.9819 54.0301C21.9819 53.4898 21.8931 53.022 21.7157 52.6269C21.5383 52.2237 21.3045 51.8849 21.0141 51.6108C20.9012 51.4979 20.7803 51.393 20.6512 51.2963C20.4577 51.1511 20.3206 51.0382 20.24 50.9576C19.9174 50.6511 19.6755 50.2963 19.5142 49.8931C19.3529 49.4898 19.2722 49.0624 19.2722 48.6108C19.2722 48.1431 19.3569 47.7117 19.5263 47.3165C19.6956 46.9214 19.9335 46.5706 20.24 46.2641C20.498 46.0061 20.8609 45.7641 21.3286 45.5383C21.6996 45.3609 22.1149 45.2722 22.5746 45.2722C23.0342 45.2722 23.4576 45.3609 23.8447 45.5383C24.2802 45.7319 24.6431 45.9738 24.9334 46.2641C25.2398 46.5706 25.4777 46.9214 25.6471 47.3165C25.8164 47.7117 25.9011 48.1431 25.9011 48.6108C25.9011 49.1028 25.8164 49.5423 25.6471 49.9294C25.4777 50.3084 25.2398 50.6511 24.9334 50.9576C24.8527 51.0382 24.7076 51.1511 24.4979 51.2963C24.4334 51.3446 24.3205 51.4495 24.1592 51.6108C23.8286 51.9333 23.5826 52.2922 23.4213 52.6873C23.2681 53.0744 23.1915 53.522 23.1915 54.0301C23.7399 54.0301 24.2157 53.9373 24.6189 53.7518C25.0302 53.5583 25.3689 53.3285 25.635 53.0623C25.7398 52.9575 25.8406 52.8406 25.9374 52.7115C26.0826 52.5099 26.1955 52.3688 26.2761 52.2882C26.5906 51.9737 26.9495 51.7358 27.3527 51.5745C27.7559 51.4051 28.1833 51.3205 28.6349 51.3205C29.1026 51.3205 29.5341 51.4051 29.9292 51.5745C30.3244 51.7438 30.6752 51.9817 30.9816 52.2882C31.2719 52.5785 31.5139 52.9414 31.7074 53.3769C31.8768 53.7559 31.9614 54.1752 31.9614 54.6349C31.9614 55.0946 31.8768 55.5139 31.7074 55.8929C31.5139 56.3284 31.2719 56.6913 30.9816 56.9816C30.6752 57.288 30.3244 57.5259 29.9292 57.6953C29.5341 57.8646 29.1026 57.9493 28.6349 57.9493C28.1833 57.9493 27.7559 57.8687 27.3527 57.7074C26.9495 57.538 26.5906 57.2961 26.2761 56.9816C26.1955 56.9009 26.0826 56.7598 25.9374 56.5582C25.8406 56.4292 25.7398 56.3123 25.635 56.2074C25.3043 55.8929 24.9415 55.655 24.5463 55.4937C24.1592 55.3244 23.7076 55.2397 23.1915 55.2397C23.1915 55.7881 23.2842 56.2679 23.4697 56.6792C23.6633 57.0824 23.8931 57.4171 24.1592 57.6832C24.2641 57.788 24.381 57.8888 24.51 57.9856C24.7116 58.1308 24.8527 58.2437 24.9334 58.3243C25.2479 58.6388 25.4858 58.9977 25.6471 59.4009C25.8164 59.8041 25.9011 60.2315 25.9011 60.6831C25.9011 61.1508 25.8164 61.5823 25.6471 61.9774C25.4777 62.3726 25.2398 62.7234 24.9334 63.0298C24.6431 63.3202 24.2802 63.5621 23.8447 63.7556C23.4657 63.925 23.0463 64.0096 22.5867 64.0096C22.127 64.0096 21.7077 63.925 21.3286 63.7556C20.8932 63.5621 20.5303 63.3202 20.24 63.0298C19.9335 62.7234 19.6956 62.3726 19.5263 61.9774C19.3569 61.5823 19.2722 61.1508 19.2722 60.6831C19.2722 60.2315 19.3529 59.8041 19.5142 59.4009C19.6835 58.9977 19.9255 58.6388 20.24 58.3243C20.3206 58.2437 20.4617 58.1308 20.6633 57.9856C20.7924 57.8888 20.9093 57.788 21.0141 57.6832C21.3286 57.3525 21.5665 56.9937 21.7278 56.6066C21.8972 56.2115 21.9819 55.7558 21.9819 55.2397C21.4738 55.2397 21.0182 55.3244 20.615 55.4937C20.2198 55.655 19.865 55.8929 19.5505 56.2074C19.4376 56.3203 19.3327 56.4413 19.236 56.5703C19.0908 56.7638 18.9779 56.9009 18.8973 56.9816C18.5908 57.3042 18.236 57.5461 17.8328 57.7074C17.4295 57.8687 17.0021 57.9493 16.5505 57.9493C16.0828 57.9493 15.6514 57.8646 15.2562 57.6953C14.8611 57.5259 14.5103 57.288 14.2038 56.9816C13.9377 56.7235 13.6958 56.3606 13.478 55.8929C13.3006 55.522 13.2119 55.1066 13.2119 54.647C13.2119 54.1873 13.3006 53.7639 13.478 53.3769C13.6716 52.9414 13.9135 52.5785 14.2038 52.2882C14.5103 51.9817 14.8611 51.7438 15.2562 51.5745C15.6514 51.4051 16.0828 51.3205 16.5505 51.3205C17.0425 51.3205 17.4779 51.4051 17.857 51.5745C18.244 51.7438 18.5908 51.9817 18.8973 52.2882C18.9779 52.3688 19.0908 52.514 19.236 52.7236C19.2843 52.7882 19.3892 52.9011 19.5505 53.0623C19.873 53.3849 20.2319 53.6268 20.627 53.7881C21.0222 53.9494 21.4738 54.0301 21.9819 54.0301Z" fill="#A347BA"/>
</g>
<defs>
<filter id="filter0_d_32_539" x="0.569824" y="0.590698" width="82.9497" height="84.3912" filterUnits="userSpaceOnUse" color-interpolation-filters="sRGB">
<feFlood flood-opacity="0" result="BackgroundImageFix"/>
<feColorMatrix in="SourceAlpha" type="matrix" values="0 0 0 0 0 0 0 0 0 0 0 0 0 0 0 0 0 0 127 0" result="hardAlpha"/>
<feOffset dy="4"/>
<feGaussianBlur stdDeviation="2"/>
<feComposite in2="hardAlpha" operator="out"/>
<feColorMatrix type="matrix" values="0 0 0 0 0 0 0 0 0 0 0 0 0 0 0 0 0 0 0.15 0"/>
<feBlend mode="normal" in2="BackgroundImageFix" result="effect1_dropShadow_32_539"/>
<feBlend mode="normal" in="SourceGraphic" in2="effect1_dropShadow_32_539" result="shape"/>
</filter>
<linearGradient id="paint0_linear_32_539" x1="79.5195" y1="78.4232" x2="4.56982" y2="78.4232" gradientUnits="userSpaceOnUse">
<stop stop-color="#D5D3CF"/>
<stop offset="0.0384615" stop-color="#E3E2DF"/>
<stop offset="0.0769231" stop-color="#C0BFBC"/>
<stop offset="0.923077" stop-color="#C0BFBC"/>
<stop offset="0.961538" stop-color="#E3E2DF"/>
<stop offset="1" stop-color="#D5D3CF"/>
</linearGradient>
<radialGradient id="paint1_radial_32_539" cx="0" cy="0" r="1" gradientUnits="userSpaceOnUse" gradientTransform="translate(42.0447 67.8096) scale(30.4021 33.7202)">
<stop stop-color="white"/>
<stop offset="1" stop-color="#F6F5F4"/>
</radialGradient>
<linearGradient id="paint2_linear_32_539" x1="65.0541" y1="19.3283" x2="65.0541" y2="23.6523" gradientUnits="userSpaceOnUse">
<stop stop-color="#C01C27"/>
<stop offset="1" stop-color="#E01B24"/>
</linearGradient>
</defs>
</svg>
