<svg width="50" height="51" viewBox="0 0 50 51" fill="none" xmlns="http://www.w3.org/2000/svg">
<g filter="url(#filter0_d_32_1899)">
<path d="M44.0343 14.294C43.1378 12.1367 41.3191 9.80745 39.8949 9.07113C40.9105 11.0378 41.6154 13.1498 41.9846 15.3322L41.9883 15.3668C39.6553 9.55296 35.7006 7.20504 32.4689 2.09925C32.3054 1.84104 32.142 1.58229 31.9828 1.30916C31.8917 1.15317 31.8188 1.01261 31.7554 0.883235C31.6214 0.623715 31.5181 0.349445 31.4477 0.0659891C31.4478 0.052909 31.4431 0.0402519 31.4344 0.0304322C31.4258 0.0206126 31.4138 0.0143177 31.4008 0.0127484C31.3881 0.00925966 31.3747 0.00925966 31.362 0.0127484C31.3593 0.0127484 31.3551 0.01754 31.3519 0.0186048C31.3487 0.0196697 31.3417 0.0244613 31.337 0.0265909L31.3449 0.0127484C26.162 3.04747 24.4023 8.66437 24.2426 11.4755C22.1721 11.6174 20.1924 12.3802 18.5618 13.6642C18.3918 13.5202 18.2141 13.3855 18.0294 13.2606C17.5593 11.6149 17.5393 9.87324 17.9714 8.21715C16.068 9.13917 14.3767 10.4463 13.0046 12.0558H12.995C12.1772 11.0192 12.2347 7.60115 12.2816 6.88719C12.0396 6.98442 11.8087 7.10703 11.5926 7.25296C10.8707 7.76819 10.1958 8.34633 9.57587 8.98062C8.86941 9.69687 8.22418 10.471 7.64695 11.295V11.2982V11.2945C6.32048 13.1747 5.37954 15.2991 4.87844 17.5449L4.85075 17.6812C4.81188 17.8628 4.67186 18.7721 4.6479 18.9696C4.6479 18.9851 4.64471 18.9995 4.64311 19.0149C4.46249 19.9537 4.35057 20.9045 4.30823 21.8596V21.966C4.31735 27.1296 6.26194 32.1022 9.75814 35.9021C13.2543 39.7019 18.0481 42.0531 23.193 42.4913C28.338 42.9295 33.4603 41.4229 37.5487 38.269C41.6372 35.1151 44.3947 30.5431 45.277 25.4554C45.3116 25.1892 45.3398 24.9257 45.3707 24.6568C45.7957 21.1439 45.3356 17.5806 44.0322 14.2909L44.0343 14.294ZM20.2517 30.4473C20.3481 30.4936 20.4386 30.5437 20.5376 30.5878L20.552 30.5969C20.4519 30.549 20.3518 30.4991 20.2517 30.4473ZM41.9888 15.3727V15.353L41.9926 15.3748L41.9888 15.3727Z" fill="url(#paint0_linear_32_1899)"/>
<path d="M44.0344 14.294C43.1378 12.1367 41.3191 9.80743 39.8949 9.07111C40.9105 11.0378 41.6154 13.1498 41.9846 15.3322V15.3519L41.9883 15.3737C43.579 19.9253 43.349 24.9156 41.3462 29.3015C38.9813 34.3759 33.259 39.577 24.2985 39.3214C14.6194 39.0472 6.09021 31.8624 4.49831 22.4548C4.20815 20.9709 4.49831 20.2187 4.64419 19.0128C4.4452 19.9495 4.33416 20.9027 4.3125 21.8601V21.9665C4.32162 27.1301 6.26621 32.1027 9.76241 35.9026C13.2586 39.7025 18.0523 42.0536 23.1973 42.4918C28.3423 42.93 33.4646 41.4234 37.553 38.2695C41.6415 35.1157 44.399 30.5436 45.2813 25.4559C45.3159 25.1897 45.3441 24.9262 45.375 24.6573C45.8 21.1445 45.3399 17.5811 44.0365 14.2914L44.0344 14.294Z" fill="url(#paint1_radial_32_1899)"/>
<path d="M44.0344 14.294C43.1378 12.1367 41.3191 9.80743 39.8949 9.07111C40.9105 11.0378 41.6154 13.1498 41.9846 15.3322V15.3519L41.9883 15.3737C43.579 19.9253 43.349 24.9156 41.3462 29.3015C38.9813 34.3759 33.259 39.577 24.2985 39.3214C14.6194 39.0472 6.09021 31.8624 4.49831 22.4548C4.20815 20.9709 4.49831 20.2187 4.64419 19.0128C4.4452 19.9495 4.33416 20.9027 4.3125 21.8601V21.9665C4.32162 27.1301 6.26621 32.1027 9.76241 35.9026C13.2586 39.7025 18.0523 42.0536 23.1973 42.4918C28.3423 42.93 33.4646 41.4234 37.553 38.2695C41.6415 35.1157 44.399 30.5436 45.2813 25.4559C45.3159 25.1897 45.3441 24.9262 45.375 24.6573C45.8 21.1445 45.3399 17.5811 44.0365 14.2914L44.0344 14.294Z" fill="url(#paint2_radial_32_1899)"/>
<path d="M34.0037 16.7165C34.0484 16.7479 34.0899 16.7793 34.132 16.8107C33.6137 15.8916 32.9685 15.0501 32.2153 14.3111C25.7998 7.89557 30.5345 0.404598 31.3326 0.021265L31.3406 0.009552C26.1576 3.04427 24.398 8.66117 24.2383 11.4723C24.4789 11.4558 24.7174 11.4355 24.9634 11.4355C26.8023 11.4391 28.6074 11.9295 30.1953 12.8569C31.7831 13.7843 33.0972 15.1156 34.0037 16.7154V16.7165Z" fill="url(#paint3_radial_32_1899)"/>
<path d="M24.9742 17.9996C24.9401 18.5128 23.1267 20.2831 22.4926 20.2831C16.6255 20.2831 15.6725 23.8327 15.6725 23.8327C15.9323 26.8216 18.0151 29.2845 20.5328 30.5836C20.6478 30.6432 20.7644 30.697 20.881 30.7497C21.083 30.8391 21.2849 30.9218 21.4869 30.9978C22.351 31.3036 23.256 31.4782 24.1718 31.5158C34.4579 31.9982 36.4492 19.2172 29.0269 15.5063C30.7777 15.2785 32.5508 15.709 34.0022 16.7144C33.0957 15.1145 31.7817 13.7832 30.1938 12.8558C28.6059 11.9284 26.8008 11.438 24.9619 11.4345C24.717 11.4345 24.4774 11.4547 24.2368 11.4712C22.1662 11.6132 20.1865 12.3759 18.556 13.6599C18.8707 13.9261 19.2258 14.2818 19.9738 15.0192C21.374 16.3986 24.9651 17.8276 24.9731 17.9953L24.9742 17.9996Z" fill="url(#paint4_radial_32_1899)"/>
<path d="M24.9742 17.9996C24.9401 18.5128 23.1267 20.2831 22.4926 20.2831C16.6255 20.2831 15.6725 23.8327 15.6725 23.8327C15.9323 26.8216 18.0151 29.2845 20.5328 30.5836C20.6478 30.6432 20.7644 30.697 20.881 30.7497C21.083 30.8391 21.2849 30.9218 21.4869 30.9978C22.351 31.3036 23.256 31.4782 24.1718 31.5158C34.4579 31.9982 36.4492 19.2172 29.0269 15.5063C30.7777 15.2785 32.5508 15.709 34.0022 16.7144C33.0957 15.1145 31.7817 13.7832 30.1938 12.8558C28.6059 11.9284 26.8008 11.438 24.9619 11.4345C24.717 11.4345 24.4774 11.4547 24.2368 11.4712C22.1662 11.6132 20.1865 12.3759 18.556 13.6599C18.8707 13.9261 19.2258 14.2818 19.9738 15.0192C21.374 16.3986 24.9651 17.8276 24.9731 17.9953L24.9742 17.9996Z" fill="url(#paint5_radial_32_1899)"/>
<path d="M17.5949 12.979C17.7621 13.0855 17.9 13.1781 18.0208 13.2617C17.5507 11.616 17.5307 9.87428 17.9628 8.21819C16.0594 9.14021 14.3681 10.4473 12.996 12.0568C13.0966 12.0542 16.0898 12.0004 17.5949 12.979Z" fill="url(#paint6_radial_32_1899)"/>
<path d="M4.49458 22.4558C6.08701 31.8635 14.6156 39.051 24.2948 39.3225C33.2552 39.5759 38.9786 34.3743 41.3425 29.3026C43.3453 24.9167 43.5753 19.9264 41.9846 15.3748V15.3551C41.9846 15.3397 41.9814 15.3306 41.9846 15.3354L41.9883 15.37C42.7204 20.1494 40.2894 24.7777 36.4885 27.9135L36.4768 27.9402C29.071 33.9723 21.9847 31.5786 20.5525 30.6022C20.4524 30.5543 20.3523 30.5044 20.2522 30.4526C15.9349 28.389 14.1509 24.4577 14.5342 21.0822C13.5094 21.0973 12.5021 20.8149 11.6346 20.2692C10.767 19.7235 10.0763 18.9379 9.64615 18.0076C10.7795 17.3133 12.0718 16.9208 13.3999 16.8675C14.728 16.8142 16.0476 17.1018 17.233 17.703C19.6763 18.8121 22.4566 18.9214 24.9795 18.0076C24.9715 17.8399 21.3804 16.4103 19.9802 15.0314C19.2321 14.294 18.877 13.9389 18.5624 13.6722C18.3923 13.5281 18.2146 13.3934 18.03 13.2686C17.9075 13.185 17.7696 13.0945 17.604 12.9859C16.0989 12.0073 13.1057 12.0611 13.0067 12.0638H12.9971C12.1793 11.0272 12.2368 7.60912 12.2837 6.89516C12.0418 6.99239 11.8108 7.11499 11.5948 7.26092C10.8728 7.77615 10.1979 8.3543 9.578 8.98858C8.86901 9.70282 8.22111 10.4752 7.6411 11.2976C6.31463 13.1779 5.37369 15.3017 4.87259 17.5476C4.86247 17.5896 4.12934 20.7947 4.49085 22.4569L4.49458 22.4558Z" fill="url(#paint7_radial_32_1899)"/>
<path d="M32.2149 14.31C32.9682 15.0499 33.6134 15.8923 34.1316 16.8123C34.245 16.898 34.3509 16.9832 34.4409 17.0657C39.1192 21.3782 36.668 27.4743 36.4853 27.9056C40.2857 24.7745 42.7145 20.1431 41.9851 15.362C39.651 9.54283 35.692 7.19491 32.4657 2.08912C32.3022 1.8309 32.1388 1.57215 31.9796 1.29903C31.8885 1.14303 31.8156 1.00248 31.7522 0.873103C31.6182 0.613583 31.5149 0.339313 31.4445 0.0558573C31.4446 0.0427772 31.4399 0.03012 31.4312 0.0203004C31.4226 0.0104807 31.4106 0.00418583 31.3977 0.00261652C31.3849 -0.000872172 31.3715 -0.000872172 31.3588 0.00261652C31.3561 0.00261652 31.3519 0.00740818 31.3487 0.008473C31.3455 0.00953781 31.3386 0.0143295 31.3338 0.0164591C30.5357 0.395001 25.802 7.89077 32.2176 14.301L32.2149 14.31Z" fill="url(#paint8_radial_32_1899)"/>
<path d="M34.4402 17.0679C34.3502 16.9853 34.2443 16.9002 34.1309 16.8144C34.0888 16.783 34.0473 16.7516 34.0026 16.7202C32.5511 15.7149 30.7781 15.2844 29.0272 15.5122C36.449 19.2231 34.4578 32.0008 24.1722 31.5217C23.2564 31.484 22.3514 31.3094 21.4873 31.0036C21.2853 30.928 21.0834 30.8453 20.8814 30.7555C20.7648 30.7023 20.6482 30.649 20.5332 30.5894L20.5476 30.5985C21.9819 31.5776 29.0661 33.9697 36.4719 27.9364L36.4836 27.9098C36.6683 27.4786 39.1195 21.3825 34.4392 17.07L34.4402 17.0679Z" fill="url(#paint9_radial_32_1899)"/>
<path d="M15.6729 23.8295C15.6729 23.8295 16.6254 20.2799 22.493 20.2799C23.1271 20.2799 24.9421 18.5096 24.9746 17.9964C22.4517 18.9102 19.6714 18.8009 17.228 17.6919C16.0427 17.0906 14.7231 16.803 13.395 16.8563C12.0669 16.9096 10.7746 17.3021 9.64124 17.9964C10.0714 18.9267 10.7621 19.7123 11.6296 20.258C12.4972 20.8038 13.5044 21.0862 14.5293 21.071C14.147 24.4449 15.9306 28.3757 20.2473 30.4414C20.3437 30.4877 20.4342 30.5378 20.5332 30.582C18.0133 29.2802 15.9327 26.8184 15.6729 23.831V23.8295Z" fill="url(#paint10_radial_32_1899)"/>
<path d="M44.0344 14.294C43.1378 12.1367 41.3191 9.80745 39.8949 9.07113C40.9105 11.0378 41.6154 13.1498 41.9846 15.3322L41.9883 15.3668C39.6553 9.55296 35.7006 7.20504 32.4689 2.09925C32.3054 1.84104 32.142 1.58229 31.9828 1.30916C31.8918 1.15317 31.8188 1.01261 31.7555 0.883235C31.6215 0.623715 31.5182 0.349445 31.4477 0.0659891C31.4478 0.052909 31.4431 0.0402519 31.4345 0.0304322C31.4258 0.0206126 31.4139 0.0143177 31.4009 0.0127484C31.3882 0.00925966 31.3747 0.00925966 31.362 0.0127484C31.3594 0.0127484 31.3551 0.01754 31.3519 0.0186048C31.3487 0.0196697 31.3418 0.0244613 31.337 0.0265909L31.345 0.0127484C26.162 3.04747 24.4024 8.66437 24.2427 11.4755C24.4833 11.459 24.7218 11.4387 24.9678 11.4387C26.8067 11.4423 28.6118 11.9327 30.1997 12.8601C31.7875 13.7875 33.1015 15.1188 34.0081 16.7186C32.5566 15.7133 30.7836 15.2828 29.0327 15.5106C36.4545 19.2215 34.4633 31.9993 24.1777 31.5201C23.2619 31.4824 22.3569 31.3078 21.4928 31.0021C21.2908 30.9265 21.0889 30.8438 20.8869 30.754C20.7703 30.7007 20.6537 30.6475 20.5387 30.5878L20.5531 30.5969C20.453 30.549 20.3529 30.4991 20.2528 30.4473C20.3492 30.4936 20.4397 30.5437 20.5387 30.5878C18.0188 29.2856 15.9382 26.8237 15.6784 23.8369C15.6784 23.8369 16.6308 20.2874 22.4985 20.2874C23.1326 20.2874 24.9476 18.5171 24.98 18.0039C24.9721 17.8362 21.381 16.4066 19.9807 15.0277C19.2327 14.2903 18.8776 13.9352 18.5629 13.6685C18.3929 13.5244 18.2152 13.3897 18.0305 13.2649C17.5604 11.6192 17.5404 9.8775 17.9725 8.22141C16.0691 9.14343 14.3778 10.4506 13.0057 12.0601H12.9961C12.1783 11.0235 12.2358 7.60541 12.2827 6.89145C12.0407 6.98868 11.8098 7.11129 11.5937 7.25722C10.8718 7.77245 10.1969 8.35059 9.57697 8.98488C8.87051 9.70113 8.22528 10.4753 7.64805 11.2993C6.32158 13.1795 5.38063 15.3033 4.87953 17.5492L4.85185 17.6855C4.81298 17.867 4.63889 18.7892 4.61386 18.9872C4.45462 19.9391 4.35292 20.8997 4.30933 21.8638V21.9703C4.31845 27.1339 6.26304 32.1064 9.75924 35.9063C13.2554 39.7062 18.0492 42.0573 23.1941 42.4955C28.3391 42.9337 33.4614 41.4272 37.5498 38.2733C41.6383 35.1194 44.3958 30.5473 45.2781 25.4597C45.3127 25.1935 45.3409 24.9299 45.3718 24.6611C45.7968 21.1482 45.3367 17.5848 44.0333 14.2951L44.0344 14.294Z" fill="url(#paint11_linear_32_1899)"/>
</g>
<defs>
<filter id="filter0_d_32_1899" x="0.308228" y="0" width="49.2203" height="50.57" filterUnits="userSpaceOnUse" color-interpolation-filters="sRGB">
<feFlood flood-opacity="0" result="BackgroundImageFix"/>
<feColorMatrix in="SourceAlpha" type="matrix" values="0 0 0 0 0 0 0 0 0 0 0 0 0 0 0 0 0 0 127 0" result="hardAlpha"/>
<feOffset dy="4"/>
<feGaussianBlur stdDeviation="2"/>
<feComposite in2="hardAlpha" operator="out"/>
<feColorMatrix type="matrix" values="0 0 0 0 0 0 0 0 0 0 0 0 0 0 0 0 0 0 0.15 0"/>
<feBlend mode="normal" in2="BackgroundImageFix" result="effect1_dropShadow_32_1899"/>
<feBlend mode="normal" in="SourceGraphic" in2="effect1_dropShadow_32_1899" result="shape"/>
</filter>
<linearGradient id="paint0_linear_32_1899" x1="41.3031" y1="6.60391" x2="7.0464" y2="39.6558" gradientUnits="userSpaceOnUse">
<stop offset="0.048" stop-color="#FFF44F"/>
<stop offset="0.111" stop-color="#FFE847"/>
<stop offset="0.225" stop-color="#FFC830"/>
<stop offset="0.368" stop-color="#FF980E"/>
<stop offset="0.401" stop-color="#FF8B16"/>
<stop offset="0.462" stop-color="#FF672A"/>
<stop offset="0.534" stop-color="#FF3647"/>
<stop offset="0.705" stop-color="#E31587"/>
</linearGradient>
<radialGradient id="paint1_radial_32_1899" cx="0" cy="0" r="1" gradientUnits="userSpaceOnUse" gradientTransform="translate(39.9774 4.8012) scale(43.0185 43.0185)">
<stop offset="0.129" stop-color="#FFBD4F"/>
<stop offset="0.186" stop-color="#FFAC31"/>
<stop offset="0.247" stop-color="#FF9D17"/>
<stop offset="0.283" stop-color="#FF980E"/>
<stop offset="0.403" stop-color="#FF563B"/>
<stop offset="0.467" stop-color="#FF3750"/>
<stop offset="0.71" stop-color="#F5156C"/>
<stop offset="0.782" stop-color="#EB0878"/>
<stop offset="0.86" stop-color="#E50080"/>
</radialGradient>
<radialGradient id="paint2_radial_32_1899" cx="0" cy="0" r="1" gradientUnits="userSpaceOnUse" gradientTransform="translate(24.0052 22.3706) scale(43.0185 43.0185)">
<stop offset="0.3" stop-color="#960E18"/>
<stop offset="0.351" stop-color="#B11927" stop-opacity="0.74"/>
<stop offset="0.435" stop-color="#DB293D" stop-opacity="0.343"/>
<stop offset="0.497" stop-color="#F5334B" stop-opacity="0.094"/>
<stop offset="0.53" stop-color="#FF3750" stop-opacity="0"/>
</radialGradient>
<radialGradient id="paint3_radial_32_1899" cx="0" cy="0" r="1" gradientUnits="userSpaceOnUse" gradientTransform="translate(29.3292 -4.78212) scale(31.1618 31.1618)">
<stop offset="0.132" stop-color="#FFF44F"/>
<stop offset="0.252" stop-color="#FFDC3E"/>
<stop offset="0.506" stop-color="#FF9D12"/>
<stop offset="0.526" stop-color="#FF980E"/>
</radialGradient>
<radialGradient id="paint4_radial_32_1899" cx="0" cy="0" r="1" gradientUnits="userSpaceOnUse" gradientTransform="translate(19.2135 33.5512) scale(20.4817 20.4817)">
<stop offset="0.353" stop-color="#3A8EE6"/>
<stop offset="0.472" stop-color="#5C79F0"/>
<stop offset="0.669" stop-color="#9059FF"/>
<stop offset="1" stop-color="#C139E6"/>
</radialGradient>
<radialGradient id="paint5_radial_32_1899" cx="0" cy="0" r="1" gradientUnits="userSpaceOnUse" gradientTransform="translate(26.0858 18.6779) rotate(-13.5916) scale(10.8612 12.7157)">
<stop offset="0.206" stop-color="#9059FF" stop-opacity="0"/>
<stop offset="0.278" stop-color="#8C4FF3" stop-opacity="0.064"/>
<stop offset="0.747" stop-color="#7716A8" stop-opacity="0.45"/>
<stop offset="0.975" stop-color="#6E008B" stop-opacity="0.6"/>
</radialGradient>
<radialGradient id="paint6_radial_32_1899" cx="0" cy="0" r="1" gradientUnits="userSpaceOnUse" gradientTransform="translate(23.4727 3.20397) scale(14.737 14.737)">
<stop stop-color="#FFE226"/>
<stop offset="0.121" stop-color="#FFDB27"/>
<stop offset="0.295" stop-color="#FFC82A"/>
<stop offset="0.502" stop-color="#FFA930"/>
<stop offset="0.732" stop-color="#FF7E37"/>
<stop offset="0.792" stop-color="#FF7139"/>
</radialGradient>
<radialGradient id="paint7_radial_32_1899" cx="0" cy="0" r="1" gradientUnits="userSpaceOnUse" gradientTransform="translate(35.1857 -6.37936) scale(62.8773 62.8773)">
<stop offset="0.113" stop-color="#FFF44F"/>
<stop offset="0.456" stop-color="#FF980E"/>
<stop offset="0.622" stop-color="#FF5634"/>
<stop offset="0.716" stop-color="#FF3647"/>
<stop offset="0.904" stop-color="#E31587"/>
</radialGradient>
<radialGradient id="paint8_radial_32_1899" cx="0" cy="0" r="1" gradientUnits="userSpaceOnUse" gradientTransform="translate(29.9596 -2.89315) rotate(83.976) scale(46.0774 30.2402)">
<stop stop-color="#FFF44F"/>
<stop offset="0.06" stop-color="#FFE847"/>
<stop offset="0.168" stop-color="#FFC830"/>
<stop offset="0.304" stop-color="#FF980E"/>
<stop offset="0.356" stop-color="#FF8B16"/>
<stop offset="0.455" stop-color="#FF672A"/>
<stop offset="0.57" stop-color="#FF3647"/>
<stop offset="0.737" stop-color="#E31587"/>
</radialGradient>
<radialGradient id="paint9_radial_32_1899" cx="0" cy="0" r="1" gradientUnits="userSpaceOnUse" gradientTransform="translate(23.4726 8.52805) scale(39.2491)">
<stop offset="0.137" stop-color="#FFF44F"/>
<stop offset="0.48" stop-color="#FF980E"/>
<stop offset="0.592" stop-color="#FF5634"/>
<stop offset="0.655" stop-color="#FF3647"/>
<stop offset="0.904" stop-color="#E31587"/>
</radialGradient>
<radialGradient id="paint10_radial_32_1899" cx="0" cy="0" r="1" gradientUnits="userSpaceOnUse" gradientTransform="translate(33.5884 10.6577) scale(42.96)">
<stop offset="0.094" stop-color="#FFF44F"/>
<stop offset="0.231" stop-color="#FFE141"/>
<stop offset="0.509" stop-color="#FFAF1E"/>
<stop offset="0.626" stop-color="#FF980E"/>
</radialGradient>
<linearGradient id="paint11_linear_32_1899" x1="40.8878" y1="6.42821" x2="11.7439" y2="35.5775" gradientUnits="userSpaceOnUse">
<stop offset="0.167" stop-color="#FFF44F" stop-opacity="0.8"/>
<stop offset="0.266" stop-color="#FFF44F" stop-opacity="0.634"/>
<stop offset="0.489" stop-color="#FFF44F" stop-opacity="0.217"/>
<stop offset="0.6" stop-color="#FFF44F" stop-opacity="0"/>
</linearGradient>
</defs>
</svg>
