<svg width="86" height="85" viewBox="0 0 86 85" fill="none" xmlns="http://www.w3.org/2000/svg">
<g filter="url(#filter0_d_32_261)">
<path d="M4.87744 14.6948V76.3953H75.3923C78.6477 76.3953 81.2685 73.7745 81.2685 70.519V20.571C81.2685 17.3156 78.6477 14.6948 75.3923 14.6948H4.87744Z" fill="#813D9C"/>
<path d="M6.34644 23.5089V74.9259H75.3922C78.6476 74.9259 81.2684 72.3051 81.2684 69.0497V29.3851C81.2684 26.1297 78.6476 23.5089 75.3922 23.5089H6.34644Z" fill="url(#paint0_linear_32_261)"/>
<path d="M4.87744 1.47299V70.5188H75.3923C78.6477 70.5188 81.2685 67.8979 81.2685 64.6425V7.34923C81.2685 4.09379 78.6477 1.47299 75.3923 1.47299H4.87744Z" fill="#813D9C"/>
<path d="M4.87744 0.00402832V69.0498H75.3923C78.6477 69.0498 81.2685 66.429 81.2685 63.1736V5.88026C81.2685 2.62483 78.6477 0.00402832 75.3923 0.00402832H4.87744Z" fill="url(#paint1_linear_32_261)"/>
<path d="M58.4857 9.17841C55.6244 9.17841 52.7298 9.94364 50.7668 11.341L52.63 14.9676C53.9275 13.9362 55.8905 13.304 57.787 13.304C60.5817 13.304 62.1451 14.7932 62.1451 17.0223L56.9794 16.998C51.5231 16.9723 49.2942 19.7481 49.2942 22.9088C49.2942 26.003 51.5714 28.2447 55.7635 28.2447C58.3919 28.2447 61.1802 27.467 62.1451 25.8367L62.1454 28.0413L67.6541 28.0403L67.6535 17.2964C67.6531 11.8733 63.9421 9.17841 58.4857 9.17841ZM57.2792 24.8386C55.4493 24.8386 54.3514 23.9735 54.3514 22.6759C54.3514 21.4782 55.1163 20.2878 57.545 20.3034L62.1451 20.3277L62.1454 21.9959C62.1457 23.7326 59.0093 24.8386 57.2792 24.8386Z" fill="#813D9C"/>
<path d="M38.6658 24.9779C37.9717 25.5468 37.4818 25.75 36.8693 25.75C35.9302 25.75 35.6444 25.1811 35.6444 23.3932V15.4697C35.6444 13.3567 35.4403 12.1784 34.8278 11.2032C33.9295 9.74036 31.4686 8.96832 29.0596 8.96832C25.2215 8.96832 22.2001 10.9594 22.2001 13.5193C22.2001 14.4539 22.9759 15.2665 23.9558 15.2665C24.9357 15.2665 25.7932 14.4539 25.7932 13.5599C25.7932 13.3974 25.7523 13.1942 25.7115 12.9098C25.6298 12.5441 25.589 12.219 25.589 11.9346C25.589 10.8375 26.8956 9.94353 28.5288 9.94353C30.5295 9.94353 31.961 11.1219 31.961 13.3161V16.547C26.3376 18.1988 24.6499 18.6391 22.8942 20.1832C21.9959 20.9958 21.4243 22.3774 21.4243 23.7183C21.4243 26.2782 23.2209 28.0661 25.7115 28.0661C27.508 28.0661 29.5112 27.2128 32.0018 25.0998C32.206 27.2534 33.3171 28.0661 34.9911 28.0661C36.3794 28.0661 37.2368 27.5785 38.6658 26.0344V24.9779ZM31.961 22.6618C31.961 23.8808 31.7569 24.3278 30.8994 24.8154C29.8787 25.3843 28.4471 25.7094 27.5897 25.7094C26.1606 25.7094 25.0174 24.3278 25.0174 22.5806V22.418C25.0582 19.98 27.1839 19.1882 31.961 17.5222V22.6618Z" fill="#813D9C"/>
<path d="M59.4625 38.6947C58.7912 38.6363 57.9447 38.8698 56.9232 39.3952C55.9016 39.9206 54.8654 40.7087 53.8146 41.7594C52.7639 42.781 51.7861 44.0215 50.8812 45.4809C50.0056 46.9403 49.3634 48.5603 48.9548 50.3407C48.6337 51.6542 48.517 52.7925 48.6046 53.7557C48.6921 54.6897 48.8964 55.4632 49.2175 56.0762C49.5386 56.6599 49.9326 57.0832 50.3996 57.3459C50.8666 57.6377 51.3045 57.7837 51.7131 57.7837C52.5887 57.7253 53.4644 57.5356 54.34 57.2145C55.0989 56.9226 55.9016 56.4702 56.748 55.8573C57.5945 55.2151 58.368 54.3103 59.0685 53.1428C59.0393 53.9309 59.0831 54.5876 59.1998 55.113C59.3458 55.6384 59.4917 56.0616 59.6376 56.3827C59.8128 56.7621 60.0317 57.054 60.2944 57.2583C60.5571 57.4334 60.8635 57.5502 61.2138 57.6085C61.5641 57.6961 61.9289 57.7253 62.3084 57.6961C62.717 57.6669 63.111 57.594 63.4905 57.4772C63.8699 57.3604 64.2056 57.2145 64.4975 57.0394C64.9353 56.7475 65.4753 56.2513 66.1174 55.5508C66.7887 54.8211 67.4601 54.033 68.1314 53.1866C68.8319 52.3109 69.5032 51.4499 70.1454 50.6034C70.7875 49.7278 71.3129 48.9981 71.7215 48.4143C72.0718 47.9473 72.2761 47.5387 72.3345 47.1884C72.422 46.8382 72.4074 46.5755 72.2907 46.4003C72.1739 46.2252 71.9988 46.1668 71.7653 46.2252C71.5318 46.2544 71.2983 46.4003 71.0648 46.663C70.8896 46.8965 70.5978 47.2614 70.1891 47.7576C69.8097 48.2538 69.3719 48.8229 68.8757 49.4651C68.3795 50.1072 67.8395 50.7785 67.2557 51.4791C66.7012 52.1504 66.1612 52.7779 65.6358 53.3617C65.1104 53.9162 64.6142 54.3833 64.1472 54.7627C63.6802 55.113 63.3008 55.2881 63.0089 55.2881C62.6586 55.2881 62.3813 55.2152 62.177 55.0692C62.0019 54.8941 61.8705 54.6751 61.783 54.4124C61.6954 54.1498 61.637 53.8725 61.6078 53.5806C61.6078 53.2595 61.6224 52.9676 61.6516 52.7049C61.7392 52.2671 61.8122 51.9023 61.8705 51.6104C61.929 51.3185 61.9727 51.0704 62.0019 50.8661C62.0603 50.6326 62.1041 50.4137 62.1332 50.2094C62.1916 49.9759 62.25 49.7278 62.3084 49.4651C62.6002 48.1224 62.8338 47.0279 63.0089 46.1814C63.184 45.335 63.3153 44.6636 63.4029 44.1674C63.4905 43.6713 63.5343 43.3356 63.5343 43.1605C63.5343 42.9561 63.5197 42.8248 63.4905 42.7664C63.4321 42.7372 63.3154 42.7226 63.1403 42.7226C62.9943 42.7226 62.7754 42.7372 62.4835 42.7664C62.2208 42.7957 61.8852 42.854 61.4765 42.9415C62.0895 42.0075 62.323 41.2632 62.1771 40.7087C62.0603 40.1249 61.7976 39.6871 61.389 39.3952C60.8928 39.0741 60.2506 38.8406 59.4625 38.6947ZM58.4315 41.4332C58.5427 41.4391 58.638 41.4749 58.7182 41.5405C58.8058 41.6573 58.8642 41.8178 58.8934 42.0221C58.9225 42.1972 58.9079 42.4453 58.8496 42.7664C58.8204 43.0583 58.689 43.4377 58.4555 43.9047C58.689 43.8464 58.9225 43.8026 59.156 43.7734C59.3895 43.7442 59.5793 43.7005 59.7252 43.6421C59.9003 43.5837 60.0609 43.5399 60.2068 43.5107C60.3236 43.4815 60.3382 43.715 60.2506 44.2112C60.1922 44.6782 60.0901 45.2766 59.9441 46.0063C59.7982 46.736 59.6231 47.4949 59.4187 48.283C59.2144 49.071 59.0393 49.757 58.8934 50.3407C58.8642 50.4867 58.7328 50.7202 58.4993 51.0412C58.295 51.3623 58.0177 51.7126 57.6675 52.092C57.3464 52.4714 56.9669 52.8363 56.5291 53.1866C56.1205 53.5368 55.6973 53.8287 55.2594 54.0622C54.8508 54.2665 54.4422 54.3832 54.0335 54.4124C53.6249 54.4124 53.2601 54.2519 52.939 53.9309C52.7639 53.7557 52.6471 53.3909 52.5887 52.8363C52.5304 52.2525 52.5449 51.5812 52.6325 50.8223C52.7493 50.0634 52.939 49.2608 53.2017 48.4143C53.4644 47.5387 53.8146 46.7214 54.2525 45.9625C55.3032 44.1237 56.2227 42.8686 57.0107 42.1972C57.6237 41.6719 58.0976 41.4168 58.4315 41.4332Z" fill="#813D9C"/>
<path fill-rule="evenodd" clip-rule="evenodd" d="M24.5606 39.7246C22.5739 39.6965 22.5739 42.6908 24.5606 42.6627H31.8184C31.8265 42.6635 32.0282 42.6868 32.2488 42.8076C32.4737 42.931 32.6057 42.946 32.6433 43.4977V43.4833L32.824 47.298C32.4857 47.1684 32.2588 47.113 32.2588 47.113L32.0852 47.0699H25.2951C22.1122 47.0699 20.964 50.2777 20.964 50.2777L20.8879 50.5044V52.2116C20.8879 54.4397 21.9393 55.9781 23.0471 56.6704C24.1548 57.3628 25.2951 57.3533 25.2951 57.3533H30.8715L33.3635 55.7351L33.3778 55.9703C33.4437 57.9795 36.4799 57.8013 36.3102 55.7982L35.5757 43.304V43.2968C35.4722 41.7798 34.502 40.6923 33.6604 40.231C32.8189 39.7697 32.002 39.7275 32.002 39.7275L31.9532 39.7246H24.5606ZM25.2951 50.008H31.6448C31.7233 50.031 32.0306 50.1118 32.4066 50.3624C32.8168 50.6358 33.0514 50.8688 33.0636 51.358L33.1655 52.3594L30.0021 54.4152H25.2951C25.2951 54.4152 24.9663 54.4057 24.6051 54.1799C24.2438 53.9541 23.8261 53.6562 23.8261 52.2116V51.0625C23.9016 50.8385 24.2189 50.008 25.2951 50.008Z" fill="#813D9C"/>
<path d="M10.7537 0.00402832H4.87744V69.0498H10.7537V0.00402832Z" fill="#3D3846"/>
<path d="M58.4857 10.6474C55.6244 10.6474 52.7298 11.4126 50.7668 12.81L52.63 16.4365C53.9275 15.4051 55.8905 14.773 57.787 14.773C60.5817 14.773 62.1451 16.2621 62.1451 18.4913L56.9794 18.467C51.5231 18.4413 49.2942 21.2171 49.2942 24.3778C49.2942 27.472 51.5714 29.7137 55.7635 29.7137C58.3919 29.7137 61.1802 28.9359 62.1451 27.3057L62.1454 29.5103L67.6541 29.5092L67.6535 18.7654C67.6531 13.3422 63.9421 10.6474 58.4857 10.6474ZM57.2792 26.3075C55.4493 26.3075 54.3514 25.4425 54.3514 24.1449C54.3514 22.9472 55.1163 21.7568 57.545 21.7724L62.1451 21.7967L62.1454 23.4648C62.1457 25.2016 59.0093 26.3075 57.2792 26.3075Z" fill="white"/>
<path d="M38.6658 26.4471C37.9717 27.016 37.4818 27.2192 36.8693 27.2192C35.9302 27.2192 35.6444 26.6503 35.6444 24.8624V16.9389C35.6444 14.8259 35.4403 13.6476 34.8278 12.6723C33.9295 11.2095 31.4686 10.4375 29.0596 10.4375C25.2215 10.4375 22.2001 12.4285 22.2001 14.9885C22.2001 15.923 22.9759 16.7357 23.9558 16.7357C24.9357 16.7357 25.7932 15.923 25.7932 15.0291C25.7932 14.8666 25.7523 14.6634 25.7115 14.379C25.6298 14.0133 25.589 13.6882 25.589 13.4038C25.589 12.3067 26.8956 11.4127 28.5288 11.4127C30.5295 11.4127 31.961 12.5911 31.961 14.7853V18.0162C26.3376 19.668 24.6499 20.1083 22.8942 21.6524C21.9959 22.465 21.4243 23.8466 21.4243 25.1875C21.4243 27.7474 23.2209 29.5353 25.7115 29.5353C27.508 29.5353 29.5112 28.682 32.0018 26.569C32.206 28.7226 33.3171 29.5353 34.9911 29.5353C36.3794 29.5353 37.2368 29.0477 38.6658 27.5036V26.4471ZM31.961 24.131C31.961 25.35 31.7569 25.797 30.8994 26.2846C29.8787 26.8535 28.4471 27.1785 27.5897 27.1785C26.1606 27.1785 25.0174 25.797 25.0174 24.0497V23.8872C25.0582 21.4492 27.1839 20.6574 31.961 18.9914V24.131Z" fill="white"/>
<path d="M59.4625 40.1639C58.7912 40.1055 57.9447 40.339 56.9232 40.8644C55.9016 41.3898 54.8654 42.1778 53.8146 43.2286C52.7639 44.2502 51.7861 45.4907 50.8812 46.9501C50.0056 48.4095 49.3634 50.0294 48.9548 51.8099C48.6337 53.1234 48.517 54.2617 48.6046 55.2249C48.6921 56.1589 48.8964 56.9324 49.2175 57.5453C49.5386 58.1291 49.9326 58.5523 50.3996 58.815C50.8666 59.1069 51.3045 59.2529 51.7131 59.2529C52.5887 59.1945 53.4644 59.0047 54.34 58.6837C55.0989 58.3918 55.9016 57.9394 56.748 57.3264C57.5945 56.6843 58.368 55.7795 59.0685 54.612C59.0393 55.4 59.0831 56.0568 59.1998 56.5821C59.3458 57.1075 59.4917 57.5307 59.6376 57.8518C59.8128 58.2313 60.0317 58.5231 60.2944 58.7275C60.5571 58.9026 60.8635 59.0194 61.2138 59.0777C61.5641 59.1653 61.9289 59.1945 62.3084 59.1653C62.717 59.136 63.111 59.0631 63.4905 58.9464C63.8699 58.8296 64.2056 58.6837 64.4975 58.5086C64.9353 58.2167 65.4753 57.7205 66.1174 57.02C66.7887 56.2903 67.4601 55.5022 68.1314 54.6557C68.8319 53.7801 69.5032 52.919 70.1454 52.0726C70.7875 51.1969 71.3129 50.4672 71.7215 49.8835C72.0718 49.4165 72.2761 49.0078 72.3345 48.6576C72.422 48.3073 72.4074 48.0446 72.2907 47.8695C72.1739 47.6944 71.9988 47.636 71.7653 47.6944C71.5318 47.7236 71.2983 47.8695 71.0648 48.1322C70.8896 48.3657 70.5978 48.7306 70.1891 49.2268C69.8097 49.723 69.3719 50.2921 68.8757 50.9343C68.3795 51.5764 67.8395 52.2477 67.2557 52.9482C66.7012 53.6195 66.1612 54.2471 65.6358 54.8308C65.1104 55.3854 64.6142 55.8524 64.1472 56.2319C63.6802 56.5821 63.3008 56.7573 63.0089 56.7573C62.6586 56.7573 62.3813 56.6843 62.177 56.5384C62.0019 56.3632 61.8705 56.1443 61.783 55.8816C61.6954 55.6189 61.637 55.3417 61.6078 55.0498C61.6078 54.7287 61.6224 54.4368 61.6516 54.1741C61.7392 53.7363 61.8122 53.3715 61.8705 53.0796C61.929 52.7877 61.9727 52.5396 62.0019 52.3353C62.0603 52.1018 62.1041 51.8829 62.1332 51.6786C62.1916 51.4451 62.25 51.197 62.3084 50.9343C62.6002 49.5916 62.8338 48.4971 63.0089 47.6506C63.184 46.8042 63.3153 46.1328 63.4029 45.6366C63.4905 45.1404 63.5343 44.8048 63.5343 44.6296C63.5343 44.4253 63.5197 44.294 63.4905 44.2356C63.4321 44.2064 63.3154 44.1918 63.1403 44.1918C62.9943 44.1918 62.7754 44.2064 62.4835 44.2356C62.2208 44.2648 61.8852 44.3232 61.4765 44.4107C62.0895 43.4767 62.323 42.7324 62.1771 42.1778C62.0603 41.5941 61.7976 41.1562 61.389 40.8644C60.8928 40.5433 60.2506 40.3098 59.4625 40.1639ZM58.4315 42.9024C58.5427 42.9083 58.638 42.9441 58.7182 43.0097C58.8058 43.1265 58.8642 43.287 58.8934 43.4913C58.9225 43.6664 58.9079 43.9145 58.8496 44.2356C58.8204 44.5275 58.689 44.9069 58.4555 45.3739C58.689 45.3156 58.9225 45.2718 59.156 45.2426C59.3895 45.2133 59.5793 45.1696 59.7252 45.1112C59.9003 45.0529 60.0609 45.0091 60.2068 44.9799C60.3236 44.9507 60.3382 45.1842 60.2506 45.6804C60.1922 46.1474 60.0901 46.7458 59.9441 47.4755C59.7982 48.2052 59.6231 48.9641 59.4187 49.7521C59.2144 50.5402 59.0393 51.2261 58.8934 51.8099C58.8642 51.9558 58.7328 52.1893 58.4993 52.5104C58.295 52.8315 58.0177 53.1817 57.6675 53.5612C57.3464 53.9406 56.9669 54.3055 56.5291 54.6557C56.1205 55.006 55.6973 55.2979 55.2594 55.5314C54.8508 55.7357 54.4422 55.8524 54.0335 55.8816C53.6249 55.8816 53.2601 55.7211 52.939 55.4C52.7639 55.2249 52.6471 54.8601 52.5887 54.3055C52.5304 53.7217 52.5449 53.0504 52.6325 52.2915C52.7493 51.5326 52.939 50.7299 53.2017 49.8835C53.4644 49.0078 53.8146 48.1906 54.2525 47.4317C55.3032 45.5928 56.2227 44.3377 57.0107 43.6664C57.6237 43.141 58.0976 42.886 58.4315 42.9024Z" fill="white"/>
<path fill-rule="evenodd" clip-rule="evenodd" d="M24.5606 41.1936C22.5739 41.1655 22.5739 44.1598 24.5606 44.1317H31.8184C31.8265 44.1325 32.0282 44.1558 32.2488 44.2766C32.4737 44.4 32.6057 44.415 32.6433 44.9667V44.9523L32.824 48.767C32.4857 48.6374 32.2588 48.5819 32.2588 48.5819L32.0852 48.5389H25.2951C22.1122 48.5389 20.964 51.7467 20.964 51.7467L20.8879 51.9734V53.6806C20.8879 55.9087 21.9393 57.4471 23.0471 58.1394C24.1548 58.8318 25.2951 58.8223 25.2951 58.8223H30.8715L33.3635 57.2041L33.3778 57.4393C33.4437 59.4485 36.4799 59.2703 36.3102 57.2672L35.5757 44.773V44.7658C35.4722 43.2488 34.502 42.1613 33.6604 41.7C32.8189 41.2387 32.002 41.1965 32.002 41.1965L31.9532 41.1936H24.5606ZM25.2951 51.477H31.6448C31.7233 51.4999 32.0306 51.5808 32.4066 51.8314C32.8168 52.1048 33.0514 52.3378 33.0636 52.827L33.1655 53.8284L30.0021 55.8842H25.2951C25.2951 55.8842 24.9663 55.8747 24.6051 55.6489C24.2438 55.4231 23.8261 55.1252 23.8261 53.6806V52.5315C23.9016 52.3075 24.2189 51.477 25.2951 51.477Z" fill="white"/>
<path d="M4.87744 69.0497V76.395H10.7537V74.9259H6.3465V70.5188H10.7537V69.0497H4.87744Z" fill="#241F31"/>
<path opacity="0.15" d="M7.08105 69.0498V0.00402832" stroke="white" stroke-width="2"/>
</g>
<defs>
<filter id="filter0_d_32_261" x="0.877441" y="0.00402832" width="84.3911" height="84.3912" filterUnits="userSpaceOnUse" color-interpolation-filters="sRGB">
<feFlood flood-opacity="0" result="BackgroundImageFix"/>
<feColorMatrix in="SourceAlpha" type="matrix" values="0 0 0 0 0 0 0 0 0 0 0 0 0 0 0 0 0 0 127 0" result="hardAlpha"/>
<feOffset dy="4"/>
<feGaussianBlur stdDeviation="2"/>
<feComposite in2="hardAlpha" operator="out"/>
<feColorMatrix type="matrix" values="0 0 0 0 0 0 0 0 0 0 0 0 0 0 0 0 0 0 0.15 0"/>
<feBlend mode="normal" in2="BackgroundImageFix" result="effect1_dropShadow_32_261"/>
<feBlend mode="normal" in="SourceGraphic" in2="effect1_dropShadow_32_261" result="shape"/>
</filter>
<linearGradient id="paint0_linear_32_261" x1="75.3922" y1="49.2174" x2="81.2684" y2="49.2174" gradientUnits="userSpaceOnUse">
<stop stop-color="#E8E7E4"/>
<stop offset="0.511049" stop-color="white"/>
<stop offset="1" stop-color="#C2BFBA"/>
</linearGradient>
<linearGradient id="paint1_linear_32_261" x1="43.073" y1="13.5082" x2="43.073" y2="191.349" gradientUnits="userSpaceOnUse">
<stop stop-color="#A347BA"/>
<stop offset="1" stop-color="#C061CB"/>
</linearGradient>
</defs>
</svg>
