<svg width="81" height="85" viewBox="0 0 81 85" fill="none" xmlns="http://www.w3.org/2000/svg">
<g filter="url(#filter0_d_32_286)">
<path d="M4.26855 13.8935V72.2285H70.9371C74.0161 72.2285 76.4928 69.7518 76.4928 66.6728V19.4492C76.4928 16.3703 74.0161 13.8935 70.9371 13.8935H4.26855Z" fill="#3D3846"/>
<path d="M5.65747 22.2267V70.8392H70.9371C74.0161 70.8392 76.4928 68.3625 76.4928 65.2835V27.7824C76.4928 24.7035 74.0161 22.2267 70.9371 22.2267H5.65747Z" fill="url(#paint0_linear_32_286)"/>
<path d="M4.26855 1.39304V62.5059H70.9371C74.0161 62.5059 76.4928 60.0291 76.4928 56.9502V6.94875C76.4928 3.86978 74.0161 1.39304 70.9371 1.39304H4.26855Z" fill="#9A9996"/>
<path d="M4.26855 0.00402832V61.1169H70.9371C74.0161 61.1169 76.4928 58.6401 76.4928 55.5612V5.55974C76.4928 2.48077 74.0161 0.00402832 70.9371 0.00402832H4.26855Z" fill="#C0BFBC"/>
<path d="M4.26855 0.00402832H12.6021V62.5058H4.26855V0.00402832Z" fill="#3D3846"/>
<path d="M4.26855 61.1167V72.2281H12.6021V70.8392H5.65748V62.5056H12.6021V61.1167H4.26855Z" fill="#241F31"/>
<path d="M6.35205 61.1169V0.00402832" stroke="#5E5C64" stroke-width="2.66667"/>
<path d="M43.1584 31.9494V62.5058H72.3259C74.6345 62.5058 76.4927 60.6476 76.4927 58.339V31.9494H43.1584Z" fill="#3D3846"/>
<path d="M43.1584 30.5604V61.1168H72.3259C74.6345 61.1168 76.4927 59.2586 76.4927 56.95V30.5604H43.1584Z" fill="#5E5C64"/>
<path d="M43.1584 30.5605V0.00402832H72.3259C74.6345 0.00402832 76.4927 1.86226 76.4927 4.17081V30.5605H43.1584Z" fill="#DEDDDA"/>
<path d="M12.6021 0.00402832H43.1585V30.5605H12.6021V0.00402832Z" fill="#5E5C64"/>
<path d="M36.3874 12.5668C36.3874 10.0466 34.3366 8.00122 31.8056 8.00122C30.14 8.00122 28.6805 8.88829 27.8802 10.2148C27.08 8.88829 25.6205 8.00122 23.9549 8.00122C21.4239 8.00122 19.373 10.0466 19.373 12.5668C19.373 13.8798 19.9292 15.0625 20.8189 15.8953H20.8162L27.7744 22.5741L34.9442 15.8953H34.9415C35.8313 15.0625 36.3874 13.8798 36.3874 12.5668Z" fill="#DEDDDA"/>
<path d="M12.6021 30.5604H43.1585V61.1168H12.6021V30.5604Z" fill="#DEDDDA"/>
<path d="M12.6021 65.2835H23.7135V76.395L18.1578 72.2282L12.6021 76.395V65.2835Z" fill="#F66151"/>
<path d="M65.3814 15.2824C65.3814 18.3505 62.8939 20.8381 59.8257 20.8381C56.7576 20.8381 54.27 18.3505 54.27 15.2824C54.27 12.2143 56.7576 9.72668 59.8257 9.72668C62.8939 9.72668 65.3814 12.2143 65.3814 15.2824Z" stroke="#5E5C64" stroke-width="10.6667" stroke-linecap="round" stroke-linejoin="round"/>
<path d="M59.8257 38.894L66.0759 45.1442L59.8257 51.3944" stroke="#DEDDDA" stroke-width="8" stroke-linecap="round"/>
<path d="M66.0758 45.1443H52.1865" stroke="#DEDDDA" stroke-width="8" stroke-linecap="round"/>
<path d="M23.0192 37.5052C24.9371 37.5052 26.4915 39.0596 26.4915 40.9775C26.4915 42.8955 24.9371 44.4499 23.0192 44.4499C21.1013 44.4499 19.5469 42.8955 19.5469 40.9775C19.5469 39.0596 21.1013 37.5052 23.0192 37.5052Z" fill="#5E5C64"/>
<path d="M32.7416 37.5052C34.6595 37.5052 36.2139 39.0596 36.2139 40.9775C36.2139 42.8955 34.6595 44.4499 32.7416 44.4499C30.8237 44.4499 29.2693 42.8955 29.2693 40.9775C29.2693 39.0596 30.8237 37.5052 32.7416 37.5052Z" fill="#5E5C64"/>
<path d="M23.0192 47.2277C24.9371 47.2277 26.4915 48.7821 26.4915 50.7C26.4915 52.6179 24.9371 54.1723 23.0192 54.1723C21.1013 54.1723 19.5469 52.6179 19.5469 50.7C19.5469 48.7821 21.1013 47.2277 23.0192 47.2277Z" fill="#5E5C64"/>
<path d="M32.7416 47.2277C34.6595 47.2277 36.2139 48.7821 36.2139 50.7C36.2139 52.6179 34.6595 54.1723 32.7416 54.1723C30.8237 54.1723 29.2693 52.6179 29.2693 50.7C29.2693 48.7821 30.8237 47.2277 32.7416 47.2277Z" fill="#5E5C64"/>
</g>
<defs>
<filter id="filter0_d_32_286" x="0.268555" y="0.00402832" width="80.2244" height="84.3909" filterUnits="userSpaceOnUse" color-interpolation-filters="sRGB">
<feFlood flood-opacity="0" result="BackgroundImageFix"/>
<feColorMatrix in="SourceAlpha" type="matrix" values="0 0 0 0 0 0 0 0 0 0 0 0 0 0 0 0 0 0 127 0" result="hardAlpha"/>
<feOffset dy="4"/>
<feGaussianBlur stdDeviation="2"/>
<feComposite in2="hardAlpha" operator="out"/>
<feColorMatrix type="matrix" values="0 0 0 0 0 0 0 0 0 0 0 0 0 0 0 0 0 0 0.15 0"/>
<feBlend mode="normal" in2="BackgroundImageFix" result="effect1_dropShadow_32_286"/>
<feBlend mode="normal" in="SourceGraphic" in2="effect1_dropShadow_32_286" result="shape"/>
</filter>
<linearGradient id="paint0_linear_32_286" x1="70.9371" y1="46.533" x2="76.4928" y2="46.533" gradientUnits="userSpaceOnUse">
<stop stop-color="#E8E7E4"/>
<stop offset="0.511049" stop-color="white"/>
<stop offset="1" stop-color="#C2BFBA"/>
</linearGradient>
</defs>
</svg>
