<svg width="42" height="51" viewBox="0 0 42 51" fill="none" xmlns="http://www.w3.org/2000/svg">
<g filter="url(#filter0_d_32_1912)">
<path d="M34.6421 20.5248H7.86293C6.02141 20.5248 4.52856 21.8892 4.52856 23.5723V39.5225C4.52856 41.2056 6.02141 42.57 7.86293 42.57H34.6421C36.4836 42.57 37.9764 41.2056 37.9764 39.5225V23.5723C37.9764 21.8892 36.4836 20.5248 34.6421 20.5248Z" fill="url(#paint0_linear_32_1912)"/>
<path d="M34.6421 0H7.86293C6.02141 0 4.52856 1.36442 4.52856 3.04752V38.0021C4.52856 39.6852 6.02141 41.0496 7.86293 41.0496H34.6421C36.4836 41.0496 37.9764 39.6852 37.9764 38.0021V3.04752C37.9764 1.36442 36.4836 0 34.6421 0Z" fill="#F6F5F4"/>
<path d="M34.9357 2.28053H7.56931C6.72964 2.28053 6.04895 2.96159 6.04895 3.80171V38.0081C6.04895 38.8482 6.72964 39.5293 7.56931 39.5293H34.9357C35.7754 39.5293 36.4561 38.8482 36.4561 38.0081V3.80171C36.4561 2.96159 35.7754 2.28053 34.9357 2.28053Z" fill="#1A5FB4"/>
<path d="M34.9357 1.52036H7.56931C6.72964 1.52036 6.04895 2.20141 6.04895 3.04154V37.2479C6.04895 38.0881 6.72964 38.7691 7.56931 38.7691H34.9357C35.7754 38.7691 36.4561 38.0881 36.4561 37.2479V3.04154C36.4561 2.20141 35.7754 1.52036 34.9357 1.52036Z" fill="#3584E4"/>
<path d="M36.4561 13.6832H6.04895V14.4434H36.4561V13.6832Z" fill="#1C71D8"/>
<path d="M36.4561 25.8461H6.04895V26.6062H36.4561V25.8461Z" fill="#1C71D8"/>
<path d="M17.8317 6.08142H24.6733C25.305 6.08142 25.8135 6.46151 25.8135 7.22169V9.12214H24.3051L24.2932 7.60178H18.2118L18.2236 9.12214H16.6914V7.22169C16.6914 6.58998 17.2 6.08142 17.8317 6.08142Z" fill="url(#paint1_linear_32_1912)"/>
<path opacity="0.1" d="M25.2434 8.36195H17.2615C16.9467 8.36195 16.6914 8.61721 16.6914 8.93209V9.31218C16.6914 9.62705 16.9467 9.88231 17.2615 9.88231H25.2434C25.5583 9.88231 25.8135 9.62705 25.8135 9.31218V8.93209C25.8135 8.61721 25.5583 8.36195 25.2434 8.36195Z" fill="black"/>
<path d="M17.8317 7.60178C17.2 7.60178 16.6914 8.11034 16.6914 8.74204V9.12213H18.2118V8.36195H24.2932V9.12213H25.8135V8.74204C25.8135 8.11034 25.305 7.60178 24.6733 7.60178H17.8317Z" fill="url(#paint2_linear_32_1912)"/>
<path opacity="0.1" d="M24.2932 8.36195H18.2118V9.12213H24.2932V8.36195Z" fill="black"/>
<path d="M17.8317 18.2443H24.6733C25.305 18.2443 25.8135 18.6244 25.8135 19.3846V21.285H24.3051L24.2932 19.7647H18.2118L18.2236 21.285H16.6914V19.3846C16.6914 18.7529 17.2 18.2443 17.8317 18.2443Z" fill="url(#paint3_linear_32_1912)"/>
<path opacity="0.1" d="M25.2434 20.5248H17.2615C16.9467 20.5248 16.6914 20.7801 16.6914 21.095V21.475C16.6914 21.7899 16.9467 22.0452 17.2615 22.0452H25.2434C25.5583 22.0452 25.8135 21.7899 25.8135 21.475V21.095C25.8135 20.7801 25.5583 20.5248 25.2434 20.5248Z" fill="black"/>
<path d="M17.8317 19.7646C17.2 19.7646 16.6914 20.2732 16.6914 20.9049V21.285H18.2118V20.5248H24.2932V21.285H25.8135V20.9049C25.8135 20.2732 25.305 19.7646 24.6733 19.7646H17.8317Z" fill="url(#paint4_linear_32_1912)"/>
<path opacity="0.1" d="M24.2932 20.5248H18.2118V21.285H24.2932V20.5248Z" fill="black"/>
<path d="M17.8317 30.4072H24.6733C25.305 30.4072 25.8135 30.7872 25.8135 31.5474V33.4479H24.3051L24.2932 31.9275H18.2118L18.2236 33.4479H16.6914V31.5474C16.6914 30.9157 17.2 30.4072 17.8317 30.4072Z" fill="url(#paint5_linear_32_1912)"/>
<path opacity="0.1" d="M25.2434 32.6877H17.2615C16.9467 32.6877 16.6914 32.9429 16.6914 33.2578V33.6379C16.6914 33.9528 16.9467 34.208 17.2615 34.208H25.2434C25.5583 34.208 25.8135 33.9528 25.8135 33.6379V33.2578C25.8135 32.9429 25.5583 32.6877 25.2434 32.6877Z" fill="black"/>
<path d="M17.8317 31.9275C17.2 31.9275 16.6914 32.436 16.6914 33.0678V33.4478H18.2118V32.6877H24.2932V33.4478H25.8135V33.0678C25.8135 32.436 25.305 31.9275 24.6733 31.9275H17.8317Z" fill="url(#paint6_linear_32_1912)"/>
<path opacity="0.1" d="M24.2932 32.6877H18.2118V33.4478H24.2932V32.6877Z" fill="black"/>
</g>
<defs>
<filter id="filter0_d_32_1912" x="0.528564" y="0" width="41.4479" height="50.57" filterUnits="userSpaceOnUse" color-interpolation-filters="sRGB">
<feFlood flood-opacity="0" result="BackgroundImageFix"/>
<feColorMatrix in="SourceAlpha" type="matrix" values="0 0 0 0 0 0 0 0 0 0 0 0 0 0 0 0 0 0 127 0" result="hardAlpha"/>
<feOffset dy="4"/>
<feGaussianBlur stdDeviation="2"/>
<feComposite in2="hardAlpha" operator="out"/>
<feColorMatrix type="matrix" values="0 0 0 0 0 0 0 0 0 0 0 0 0 0 0 0 0 0 0.15 0"/>
<feBlend mode="normal" in2="BackgroundImageFix" result="effect1_dropShadow_32_1912"/>
<feBlend mode="normal" in="SourceGraphic" in2="effect1_dropShadow_32_1912" result="shape"/>
</filter>
<linearGradient id="paint0_linear_32_1912" x1="4.52856" y1="22.0452" x2="37.9764" y2="22.0452" gradientUnits="userSpaceOnUse">
<stop stop-color="#DEDDDA"/>
<stop offset="0.0454546" stop-color="#EEEEEC"/>
<stop offset="0.0909091" stop-color="#DEDDDA"/>
<stop offset="0.909091" stop-color="#DEDDDA"/>
<stop offset="0.954545" stop-color="#EEEEEC"/>
<stop offset="1" stop-color="#C0BFBC"/>
</linearGradient>
<linearGradient id="paint1_linear_32_1912" x1="16.6914" y1="13.6832" x2="25.8135" y2="13.6832" gradientUnits="userSpaceOnUse">
<stop stop-color="#DEDDDA"/>
<stop offset="0.0454546" stop-color="#EEEEEC"/>
<stop offset="0.0909091" stop-color="#DEDDDA"/>
<stop offset="0.909091" stop-color="#DEDDDA"/>
<stop offset="0.954545" stop-color="#EEEEEC"/>
<stop offset="1" stop-color="#C0BFBC"/>
</linearGradient>
<linearGradient id="paint2_linear_32_1912" x1="21.6326" y1="9.12213" x2="21.6326" y2="7.60178" gradientUnits="userSpaceOnUse">
<stop stop-color="#9A9996"/>
<stop offset="1" stop-color="#C0BFBC"/>
</linearGradient>
<linearGradient id="paint3_linear_32_1912" x1="16.6914" y1="25.8461" x2="25.8135" y2="25.8461" gradientUnits="userSpaceOnUse">
<stop stop-color="#DEDDDA"/>
<stop offset="0.0454546" stop-color="#EEEEEC"/>
<stop offset="0.0909091" stop-color="#DEDDDA"/>
<stop offset="0.909091" stop-color="#DEDDDA"/>
<stop offset="0.954545" stop-color="#EEEEEC"/>
<stop offset="1" stop-color="#C0BFBC"/>
</linearGradient>
<linearGradient id="paint4_linear_32_1912" x1="21.6326" y1="21.285" x2="21.6326" y2="19.7646" gradientUnits="userSpaceOnUse">
<stop stop-color="#9A9996"/>
<stop offset="1" stop-color="#C0BFBC"/>
</linearGradient>
<linearGradient id="paint5_linear_32_1912" x1="16.6914" y1="38.0089" x2="25.8135" y2="38.0089" gradientUnits="userSpaceOnUse">
<stop stop-color="#DEDDDA"/>
<stop offset="0.0454546" stop-color="#EEEEEC"/>
<stop offset="0.0909091" stop-color="#DEDDDA"/>
<stop offset="0.909091" stop-color="#DEDDDA"/>
<stop offset="0.954545" stop-color="#EEEEEC"/>
<stop offset="1" stop-color="#C0BFBC"/>
</linearGradient>
<linearGradient id="paint6_linear_32_1912" x1="21.6326" y1="33.4478" x2="21.6326" y2="31.9275" gradientUnits="userSpaceOnUse">
<stop stop-color="#9A9996"/>
<stop offset="1" stop-color="#C0BFBC"/>
</linearGradient>
</defs>
</svg>
