<svg width="84" height="85" viewBox="0 0 84 85" fill="none" xmlns="http://www.w3.org/2000/svg">
<g filter="url(#filter0_d_32_496)">
<path d="M73.8045 22.2108H10.3855C7.20136 22.2108 4.62012 24.792 4.62012 27.9761V71.2164C4.62012 74.4005 7.20136 76.9817 10.3855 76.9817H73.8045C76.9886 76.9817 79.5698 74.4005 79.5698 71.2164V27.9761C79.5698 24.792 76.9886 22.2108 73.8045 22.2108Z" fill="url(#paint0_linear_32_496)"/>
<path opacity="0.1" d="M73.8045 3.47343H10.3855C7.20136 3.47343 4.62012 6.05467 4.62012 9.2388V46.7136C4.62012 49.8978 7.20136 52.479 10.3855 52.479H73.8045C76.9886 52.479 79.5698 49.8978 79.5698 46.7136V9.2388C79.5698 6.05467 76.9886 3.47343 73.8045 3.47343Z" fill="black"/>
<path d="M73.8045 2.03206H10.3855C7.20136 2.03206 4.62012 4.6133 4.62012 7.79742V45.2723C4.62012 48.4564 7.20136 51.0376 10.3855 51.0376H73.8045C76.9886 51.0376 79.5698 48.4564 79.5698 45.2723V7.79742C79.5698 4.6133 76.9886 2.03206 73.8045 2.03206Z" fill="#CDAB8F"/>
<path d="M42.0949 7.79753H40.6536V51.0377H42.0949V7.79753Z" fill="#CDAB8F"/>
<path d="M43.5363 51.0377H42.095V7.79746H43.5363V51.0377Z" fill="#EADCD0"/>
<path d="M39.2122 9.95937V12.842H42.0948V11.4007H44.9775V9.95937H42.0948H39.2122ZM42.0948 12.842V14.2834H39.2122V17.1661H42.0948V15.7247H44.9775V12.842H42.0948ZM42.0948 17.1661V18.6074H39.2122V21.4901H42.0948V20.0488H44.9775V17.1661H42.0948ZM42.0948 21.4901V22.9314H39.2122V25.8141H42.0948V24.3728H44.9775V22.9314V21.4901H42.0948ZM42.0948 25.8141V27.2555H39.2122V30.1381H42.0948V28.6968H44.9775V25.8141H42.0948ZM42.0948 30.1381V31.5795H39.2122V34.4622H42.0948V33.0208H44.9775V30.1381H42.0948ZM42.0948 34.4622V35.9035H39.2122V38.7862H42.0948V37.3448H44.9775V35.9035V34.4622H42.0948ZM42.0948 38.7862V40.2275H39.2122V43.1102H42.0948V41.6689H44.9775V38.7862H42.0948ZM42.0948 43.1102V44.5515H39.2122V47.4342H42.0948V45.9929H44.9775V43.1102H42.0948ZM42.0948 47.4342V48.8756H39.2122V51.7582H42.0948V50.3169H44.9775V48.8756V47.4342H42.0948Z" fill="url(#paint1_linear_32_496)"/>
<path opacity="0.4" d="M42.0948 10.6799V11.4005H44.9775V10.6799H42.0948ZM39.2122 12.1212V12.8419H42.0948V12.1212H39.2122ZM42.0948 15.0039V15.7245H44.9775V15.0039H42.0948ZM39.2122 16.4452V17.1659H42.0948V16.4452H39.2122ZM42.0948 19.3279V20.0486H44.9775V19.3279H42.0948ZM39.2122 20.7692V21.4899H42.0948V20.7692H39.2122ZM42.0948 23.6519V24.3726H44.9775V23.6519H42.0948ZM39.2122 25.0933V25.8139H42.0948V25.0933H39.2122ZM42.0948 27.9759V28.6966H44.9775V27.9759H42.0948ZM39.2122 29.4173V30.138H42.0948V29.4173H39.2122ZM42.0948 32.3V33.0206H44.9775V32.3H42.0948ZM39.2122 33.7413V34.462H42.0948V33.7413H39.2122ZM42.0948 36.624V37.3447H44.9775V36.624H42.0948ZM39.2122 38.0653V38.786H42.0948V38.0653H39.2122ZM42.0948 40.948V41.6687H44.9775V40.948H42.0948ZM39.2122 42.3893V43.11H42.0948V42.3893H39.2122ZM42.0948 45.272V45.9927H44.9775V45.272H42.0948ZM39.2122 46.7134V47.434H42.0948V46.7134H39.2122ZM42.0948 49.5961V50.3167H44.9775V49.5961H42.0948ZM39.2122 51.0374V51.7581H42.0948V51.0374H39.2122Z" fill="#241F31"/>
<path opacity="0.1" d="M39.2123 3.47343C37.6153 3.47343 36.3296 4.75911 36.3296 6.35612V13.5628C36.3296 15.1598 37.6153 16.4455 39.2123 16.4455V22.2109C39.2123 23.0094 39.8551 23.6522 40.6536 23.6522H43.5363C44.3348 23.6522 44.9776 23.0094 44.9776 22.2109V16.4455C46.5746 16.4455 47.8603 15.1598 47.8603 13.5628V6.35612C47.8603 4.75911 46.5746 3.47343 44.9776 3.47343H39.2123ZM40.6536 19.3282H43.5363V22.2109H40.6536V19.3282Z" fill="black"/>
<path d="M40.6535 7.79753C39.855 7.79753 39.2122 8.44037 39.2122 9.23887V20.7696C39.2122 21.5681 39.855 22.2109 40.6535 22.2109H43.5362C44.3347 22.2109 44.9775 21.5681 44.9775 20.7696V9.23887C44.9775 8.44037 44.3347 7.79753 43.5362 7.79753H40.6535ZM40.6535 17.8869H43.5362V20.7696H40.6535V17.8869Z" fill="url(#paint2_linear_32_496)"/>
<path d="M44.9776 2.03206H39.2123C37.6202 2.03206 36.3296 3.32268 36.3296 4.91474V12.1214C36.3296 13.7135 37.6202 15.0041 39.2123 15.0041H44.9776C46.5697 15.0041 47.8603 13.7135 47.8603 12.1214V4.91474C47.8603 3.32268 46.5697 2.03206 44.9776 2.03206Z" fill="#3D3846"/>
<path d="M44.9776 0.590698H39.2123C37.6202 0.590698 36.3296 1.88132 36.3296 3.47338V10.6801C36.3296 12.2721 37.6202 13.5628 39.2123 13.5628H44.9776C46.5697 13.5628 47.8603 12.2721 47.8603 10.6801V3.47338C47.8603 1.88132 46.5697 0.590698 44.9776 0.590698Z" fill="#5E5C64"/>
<path d="M40.6535 4.91479C39.855 4.91479 39.2122 5.55763 39.2122 6.35614V19.3282C39.2122 20.1267 39.855 20.7695 40.6535 20.7695H43.5362C44.3347 20.7695 44.9775 20.1267 44.9775 19.3282V6.35614C44.9775 5.55763 44.3347 4.91479 43.5362 4.91479H40.6535ZM40.6535 16.4455H43.5362V19.3282H40.6535V16.4455Z" fill="white"/>
<path d="M43.5362 7.79757C43.5362 8.5936 42.8909 9.23891 42.0949 9.23891C41.2989 9.23891 40.6536 8.5936 40.6536 7.79757V3.47354C40.6536 2.67751 41.2989 2.0322 42.0949 2.0322C42.8909 2.0322 43.5362 2.67751 43.5362 3.47354V7.79757Z" fill="#68676B"/>
<path d="M43.5362 6.35619C43.5362 7.15222 42.8909 7.79753 42.0949 7.79753C41.2989 7.79753 40.6536 7.15222 40.6536 6.35619V3.47351C40.6536 2.67748 41.2989 2.03217 42.0949 2.03217C42.8909 2.03217 43.5362 2.67748 43.5362 3.47351V6.35619Z" fill="#949390"/>
<path opacity="0.1" d="M7.50335 2.80467C6.95946 3.11829 6.47436 3.51789 6.06201 3.98562V49.0838C6.47436 49.5515 6.95946 49.9511 7.50335 50.2648V2.80467Z" fill="white"/>
<path opacity="0.1" d="M76.6877 2.80467V50.2648C77.2318 49.9509 77.7167 49.5505 78.1291 49.0824V3.98702C77.7167 3.51896 77.2318 3.11853 76.6877 2.80467Z" fill="white"/>
</g>
<defs>
<filter id="filter0_d_32_496" x="0.620117" y="0.590698" width="82.9497" height="84.391" filterUnits="userSpaceOnUse" color-interpolation-filters="sRGB">
<feFlood flood-opacity="0" result="BackgroundImageFix"/>
<feColorMatrix in="SourceAlpha" type="matrix" values="0 0 0 0 0 0 0 0 0 0 0 0 0 0 0 0 0 0 127 0" result="hardAlpha"/>
<feOffset dy="4"/>
<feGaussianBlur stdDeviation="2"/>
<feComposite in2="hardAlpha" operator="out"/>
<feColorMatrix type="matrix" values="0 0 0 0 0 0 0 0 0 0 0 0 0 0 0 0 0 0 0.15 0"/>
<feBlend mode="normal" in2="BackgroundImageFix" result="effect1_dropShadow_32_496"/>
<feBlend mode="normal" in="SourceGraphic" in2="effect1_dropShadow_32_496" result="shape"/>
</filter>
<linearGradient id="paint0_linear_32_496" x1="4.49272" y1="62.5683" x2="79.4424" y2="62.5683" gradientUnits="userSpaceOnUse">
<stop stop-color="#986A44"/>
<stop offset="0.0288459" stop-color="#CDAB8F"/>
<stop offset="0.057692" stop-color="#B5835A"/>
<stop offset="0.942308" stop-color="#B5835A"/>
<stop offset="0.971333" stop-color="#CDAB8F"/>
<stop offset="1" stop-color="#986A44"/>
</linearGradient>
<linearGradient id="paint1_linear_32_496" x1="46.8413" y1="42.5732" x2="39.2122" y2="20.7694" gradientUnits="userSpaceOnUse">
<stop stop-color="white"/>
<stop offset="1" stop-color="#DEDDDA"/>
</linearGradient>
<linearGradient id="paint2_linear_32_496" x1="39.2122" y1="15.0042" x2="44.9775" y2="15.0042" gradientUnits="userSpaceOnUse">
<stop stop-color="#949390"/>
<stop offset="0.0833333" stop-color="#D5D3CF"/>
<stop offset="0.166667" stop-color="#949390"/>
<stop offset="0.833333" stop-color="#949390"/>
<stop offset="0.916667" stop-color="#D5D3CF"/>
<stop offset="1" stop-color="#949390"/>
</linearGradient>
</defs>
</svg>
