<svg width="53" height="51" viewBox="0 0 53 51" fill="none" xmlns="http://www.w3.org/2000/svg">
<g filter="url(#filter0_d_32_1948)">
<path d="M18.5269 3.15333L21.6802 0H31.1402L34.2935 3.15333H18.5269Z" fill="#C0BFBC"/>
<path d="M21.6802 0L18.5269 3.15333V9.46H21.6802V0Z" fill="#F6F5F4"/>
<path d="M31.1403 0L34.2936 3.15333V9.46H31.1403V0Z" fill="#F6F5F4"/>
<path d="M7.49025 25.2267H45.3302C47.0717 25.2267 48.4836 26.6386 48.4836 28.38V39.4167C48.4836 41.1581 47.0717 42.57 45.3302 42.57H7.49025C5.74883 42.57 4.33691 41.1581 4.33691 39.4167V28.38C4.33691 26.6386 5.74883 25.2267 7.49025 25.2267Z" fill="#DEDDDA"/>
<path d="M4.33691 7.88333H48.4836V39.4167H4.33691V7.88333Z" fill="#E5E5E1"/>
<path d="M4.33691 23.65H48.4836V39.4167H4.33691V23.65Z" fill="#F6F5F4"/>
<path d="M18.5269 18.92H21.6802C23.4216 18.92 24.8335 20.3319 24.8335 22.0733V25.2267C24.8335 26.9681 23.4216 28.38 21.6802 28.38H18.5269C16.7855 28.38 15.3735 26.9681 15.3735 25.2267V22.0733C15.3735 20.3319 16.7855 18.92 18.5269 18.92Z" fill="url(#paint0_linear_32_1948)"/>
<path d="M31.1403 22.0733C28.5274 22.0733 26.4103 19.9562 26.4103 17.3433C26.4103 14.7304 28.5274 12.6133 31.1403 12.6133C33.7532 12.6133 35.8703 14.7304 35.8703 17.3433C35.8703 19.9562 33.7532 22.0733 31.1403 22.0733Z" fill="url(#paint1_linear_32_1948)"/>
<path d="M33.8162 24.8233L26.8875 28.7834C26.4657 29.0236 26.2054 29.4716 26.2054 29.9567C26.2054 30.4417 26.4657 30.8897 26.8875 31.1299L33.8162 35.0901C34.2412 35.3333 34.7632 35.3303 35.1866 35.0854C35.61 34.8391 35.8702 34.388 35.8702 33.8983V26.015C35.8702 25.5254 35.61 25.0742 35.1866 24.8279C34.7632 24.5831 34.2412 24.58 33.8162 24.8233Z" fill="url(#paint2_linear_32_1948)"/>
</g>
<defs>
<filter id="filter0_d_32_1948" x="0.336914" y="0" width="52.1467" height="50.57" filterUnits="userSpaceOnUse" color-interpolation-filters="sRGB">
<feFlood flood-opacity="0" result="BackgroundImageFix"/>
<feColorMatrix in="SourceAlpha" type="matrix" values="0 0 0 0 0 0 0 0 0 0 0 0 0 0 0 0 0 0 127 0" result="hardAlpha"/>
<feOffset dy="4"/>
<feGaussianBlur stdDeviation="2"/>
<feComposite in2="hardAlpha" operator="out"/>
<feColorMatrix type="matrix" values="0 0 0 0 0 0 0 0 0 0 0 0 0 0 0 0 0 0 0.15 0"/>
<feBlend mode="normal" in2="BackgroundImageFix" result="effect1_dropShadow_32_1948"/>
<feBlend mode="normal" in="SourceGraphic" in2="effect1_dropShadow_32_1948" result="shape"/>
</filter>
<linearGradient id="paint0_linear_32_1948" x1="15.3735" y1="23.65" x2="24.8335" y2="23.65" gradientUnits="userSpaceOnUse">
<stop stop-color="#ED336C"/>
<stop offset="1" stop-color="#FFA348"/>
</linearGradient>
<linearGradient id="paint1_linear_32_1948" x1="31.1403" y1="12.6133" x2="31.1403" y2="22.0733" gradientUnits="userSpaceOnUse">
<stop stop-color="#404CE6"/>
<stop offset="1" stop-color="#C061CB"/>
</linearGradient>
<linearGradient id="paint2_linear_32_1948" x1="28.3216" y1="29.9567" x2="38.7309" y2="29.9567" gradientUnits="userSpaceOnUse">
<stop stop-color="#33D1C6"/>
<stop offset="1" stop-color="#1C25D8"/>
</linearGradient>
</defs>
</svg>
