<svg width="52" height="51" viewBox="0 0 52 51" fill="none" xmlns="http://www.w3.org/2000/svg">
<g filter="url(#filter0_d_32_1945)">
<path d="M26.052 0C14.3023 0 4.76697 9.53534 4.76697 21.285C4.76697 33.0347 14.3023 42.57 26.052 42.57C37.8016 42.57 47.337 33.0347 47.337 21.285C47.337 9.53534 37.8016 0 26.052 0Z" fill="#1ED760"/>
<path d="M39.6641 19.1479C39.2178 19.1479 38.9431 19.0363 38.5569 18.8132C32.4461 15.1656 21.5203 14.2901 14.4482 16.2641C14.1393 16.35 13.753 16.4873 13.3411 16.4873C12.2082 16.4873 11.3413 15.6033 11.3413 14.4618C11.3413 13.2945 12.0623 12.6337 12.8347 12.4105C15.8558 11.5265 19.2374 11.106 22.9193 11.106C29.1847 11.106 35.7504 12.4105 40.5481 15.2085C41.2176 15.5947 41.6553 16.1268 41.6553 17.1482C41.6553 18.3154 40.7112 19.1479 39.6641 19.1479ZM37.0035 25.6879C36.5572 25.6879 36.2568 25.4905 35.9478 25.3274C30.5836 22.1518 22.5846 20.873 15.4696 22.8041C15.0576 22.9157 14.8345 23.0273 14.4482 23.0273C13.5299 23.0273 12.7832 22.2806 12.7832 21.3622C12.7832 20.4439 13.2295 19.8345 14.1135 19.5856C16.4995 18.9162 18.937 18.4184 22.5074 18.4184C28.0775 18.4184 33.4588 19.8002 37.6987 22.3235C38.3939 22.7355 38.6685 23.2676 38.6685 24.0143C38.6599 24.9412 37.939 25.6879 37.0035 25.6879ZM34.6947 31.3181C34.3343 31.3181 34.1111 31.2065 33.7764 31.0091C28.4208 27.7821 22.1898 27.6447 16.036 28.9064C15.7013 28.9922 15.2636 29.1295 15.0147 29.1295C14.1822 29.1295 13.6586 28.4687 13.6586 27.7735C13.6586 26.8895 14.1822 26.4689 14.8259 26.3316C21.8551 24.7781 29.0388 24.9155 35.1668 28.5803C35.6903 28.915 35.9993 29.2154 35.9993 29.9964C35.9993 30.7774 35.3899 31.3181 34.6947 31.3181Z" fill="black"/>
</g>
<defs>
<filter id="filter0_d_32_1945" x="0.766968" y="0" width="50.5699" height="50.57" filterUnits="userSpaceOnUse" color-interpolation-filters="sRGB">
<feFlood flood-opacity="0" result="BackgroundImageFix"/>
<feColorMatrix in="SourceAlpha" type="matrix" values="0 0 0 0 0 0 0 0 0 0 0 0 0 0 0 0 0 0 127 0" result="hardAlpha"/>
<feOffset dy="4"/>
<feGaussianBlur stdDeviation="2"/>
<feComposite in2="hardAlpha" operator="out"/>
<feColorMatrix type="matrix" values="0 0 0 0 0 0 0 0 0 0 0 0 0 0 0 0 0 0 0.15 0"/>
<feBlend mode="normal" in2="BackgroundImageFix" result="effect1_dropShadow_32_1945"/>
<feBlend mode="normal" in="SourceGraphic" in2="effect1_dropShadow_32_1945" result="shape"/>
</filter>
</defs>
</svg>
