<svg width="54" height="22" viewBox="0 0 54 22" fill="none" xmlns="http://www.w3.org/2000/svg">
<path d="M3.4707 3.98338H18.0739V18.5866H3.4707V3.98338Z" fill="#F5C211"/>
<path d="M21.0609 11.285L10.7723 21.5736L0.483643 11.285L10.7723 0.996399L21.0609 11.285Z" fill="#F6D32D"/>
<path d="M18.7376 11.2851C18.7376 15.6839 15.1711 19.2504 10.7723 19.2504C6.37338 19.2504 2.80688 15.6839 2.80688 11.2851C2.80688 6.88618 6.37338 3.31969 10.7723 3.31969C15.1711 3.31969 18.7376 6.88618 18.7376 11.2851Z" fill="url(#paint0_radial_32_1959)"/>
<path d="M15.0868 12.6126C14.452 12.6133 13.8307 12.7961 13.2967 13.1393C12.7626 13.4825 12.3383 13.9717 12.0739 14.5488C11.7226 14.3678 11.3334 14.273 10.9382 14.272C9.62887 14.2734 8.54426 15.2891 8.4573 16.5953H8.449C7.76896 16.5953 7.185 17.005 6.92894 17.591H6.78955V18.2547C6.78955 19.1713 7.53249 19.9142 8.449 19.9142H17.7419C18.842 19.9142 19.7333 19.0229 19.7333 17.9228V17.2591H19.616C19.5168 16.9788 19.3561 16.7243 19.1456 16.5143C18.9352 16.3043 18.6804 16.1441 18.3999 16.0455C18.4024 16.0073 18.4044 15.9697 18.4057 15.9315C18.4057 14.0983 16.92 12.6126 15.0868 12.6126Z" fill="#DCEAFA"/>
<path d="M15.0868 11.9488C14.452 11.9495 13.8307 12.1323 13.2967 12.4755C12.7626 12.8187 12.3383 13.3079 12.0739 13.885C11.7226 13.704 11.3334 13.6091 10.9382 13.6082C9.62887 13.6096 8.54426 14.6253 8.4573 15.9315H8.449C7.53249 15.9315 6.78955 16.6744 6.78955 17.5909C6.78955 18.5074 7.53249 19.2504 8.449 19.2504H17.7419C18.842 19.2504 19.7333 18.3591 19.7333 17.259C19.7329 16.8465 19.6044 16.4443 19.3656 16.108C19.1267 15.7717 18.7893 15.5179 18.3999 15.3817C18.4024 15.3435 18.4044 15.3058 18.4057 15.2677C18.4057 13.4345 16.92 11.9488 15.0868 11.9488Z" fill="url(#paint1_linear_32_1959)"/>
<path d="M32.3019 12.009V13.283H31.2489V15.285H29.6239V13.283H25.9059V12.139L28.4539 6.367L29.8709 6.9L27.6349 12.009H29.6369L29.8059 9.812H31.2489V12.009H32.3019ZM36.8884 9.461C37.3477 9.461 37.7637 9.57367 38.1364 9.799C38.5177 10.0157 38.8167 10.3407 39.0334 10.774C39.2501 11.1987 39.3584 11.71 39.3584 12.308C39.3584 12.9147 39.2327 13.4607 38.9814 13.946C38.7301 14.4227 38.3747 14.7997 37.9154 15.077C37.4647 15.3457 36.9491 15.48 36.3684 15.48C35.2937 15.48 34.4964 15.103 33.9764 14.349C33.4651 13.595 33.2094 12.5593 33.2094 11.242C33.2094 10.2713 33.3524 9.422 33.6384 8.694C33.9331 7.95734 34.3491 7.38967 34.8864 6.991C35.4324 6.58367 36.0694 6.38 36.7974 6.38C37.5167 6.38 38.1537 6.56634 38.7084 6.939L38.0844 7.966C37.6857 7.732 37.2654 7.615 36.8234 7.615C36.2687 7.615 35.8224 7.86634 35.4844 8.369C35.1551 8.863 34.9687 9.54767 34.9254 10.423C35.4541 9.78167 36.1084 9.461 36.8884 9.461ZM36.3684 14.245C36.8017 14.245 37.1267 14.076 37.3434 13.738C37.5687 13.3913 37.6814 12.9233 37.6814 12.334C37.6814 11.736 37.5774 11.3113 37.3694 11.06C37.1701 10.8 36.8754 10.67 36.4854 10.67C36.1907 10.67 35.9091 10.7523 35.6404 10.917C35.3804 11.073 35.1464 11.2897 34.9384 11.567C34.9557 12.5117 35.0727 13.1963 35.2894 13.621C35.5147 14.037 35.8744 14.245 36.3684 14.245ZM42.4789 10.41C42.1062 10.41 41.7466 10.3233 41.3999 10.15C41.0619 9.97667 40.7846 9.72534 40.5679 9.396C40.3599 9.06667 40.2559 8.68534 40.2559 8.252C40.2559 7.81867 40.3599 7.44167 40.5679 7.121C40.7846 6.79167 41.0619 6.54034 41.3999 6.367C41.7379 6.19367 42.0976 6.107 42.4789 6.107C42.8689 6.107 43.2329 6.19367 43.5709 6.367C43.9176 6.54034 44.1949 6.79167 44.4029 7.121C44.6109 7.44167 44.7149 7.823 44.7149 8.265C44.7149 8.69834 44.6066 9.07967 44.3899 9.409C44.1819 9.72967 43.9046 9.97667 43.5579 10.15C43.2199 10.3233 42.8602 10.41 42.4789 10.41ZM42.4789 9.396C42.7736 9.396 43.0162 9.29634 43.2069 9.097C43.3976 8.89767 43.4929 8.62034 43.4929 8.265C43.4929 7.90967 43.3976 7.63234 43.2069 7.433C43.0162 7.225 42.7736 7.121 42.4789 7.121C42.1842 7.121 41.9416 7.22067 41.7509 7.42C41.5689 7.61934 41.4779 7.89667 41.4779 8.252C41.4779 8.60734 41.5689 8.889 41.7509 9.097C41.9416 9.29634 42.1842 9.396 42.4789 9.396ZM50.2069 8.213C50.6576 8.213 51.0606 8.278 51.4159 8.408C51.7799 8.538 52.1222 8.74167 52.4429 9.019L51.7019 10.02C51.4679 9.84667 51.2426 9.721 51.0259 9.643C50.8092 9.565 50.5709 9.526 50.3109 9.526C49.2796 9.526 48.7639 10.3103 48.7639 11.879C48.7639 12.6763 48.8982 13.2527 49.1669 13.608C49.4356 13.9547 49.8169 14.128 50.3109 14.128C50.5536 14.128 50.7746 14.089 50.9739 14.011C51.1819 13.933 51.4246 13.8073 51.7019 13.634L52.4429 14.687C51.7929 15.2157 51.0519 15.48 50.2199 15.48C49.5612 15.48 48.9892 15.337 48.5039 15.051C48.0186 14.7563 47.6459 14.3403 47.3859 13.803C47.1259 13.2657 46.9959 12.633 46.9959 11.905C46.9959 11.177 47.1259 10.5357 47.3859 9.981C47.6459 9.41767 48.0186 8.98434 48.5039 8.681C48.9892 8.369 49.5569 8.213 50.2069 8.213Z" fill="black"/>
<defs>
<radialGradient id="paint0_radial_32_1959" cx="0" cy="0" r="1" gradientUnits="userSpaceOnUse" gradientTransform="translate(10.7721 6.94002) scale(12.8986 12.7213)">
<stop stop-color="#FDFACF"/>
<stop offset="0.4" stop-color="#F9F06B"/>
<stop offset="1" stop-color="#E5A50A"/>
</radialGradient>
<linearGradient id="paint1_linear_32_1959" x1="13.2614" y1="19.1113" x2="13.2614" y2="15.5996" gradientUnits="userSpaceOnUse">
<stop stop-color="#EEF4FC"/>
<stop offset="1" stop-color="white"/>
</linearGradient>
</defs>
</svg>
